<?xml version="1.0" encoding="UTF-8"?>
<!DOCTYPE svg PUBLIC "-//W3C//DTD SVG 1.1//EN" "http://www.w3.org/Graphics/SVG/1.1/DTD/svg11.dtd">
<svg version="1.2" viewBox="8500 6000 9001 4502" preserveAspectRatio="xMidYMid" fill-rule="evenodd" stroke-width="28.222" stroke-linejoin="round" xmlns="http://www.w3.org/2000/svg" xmlns:ooo="http://xml.openoffice.org/svg/export" xmlns:xlink="http://www.w3.org/1999/xlink" xmlns:presentation="http://sun.com/xmlns/staroffice/presentation" xmlns:smil="http://www.w3.org/2001/SMIL20/" xmlns:anim="urn:oasis:names:tc:opendocument:xmlns:animation:1.0" xml:space="preserve">
 <defs class="EmbeddedBulletChars">
  <g id="bullet-char-template-57356" transform="scale(0.00048828125,-0.00048828125)">
   <path d="M 580,1141 L 1163,571 580,0 -4,571 580,1141 Z"/>
  </g>
  <g id="bullet-char-template-57354" transform="scale(0.00048828125,-0.00048828125)">
   <path d="M 8,1128 L 1137,1128 1137,0 8,0 8,1128 Z"/>
  </g>
  <g id="bullet-char-template-10146" transform="scale(0.00048828125,-0.00048828125)">
   <path d="M 174,0 L 602,739 174,1481 1456,739 174,0 Z M 1358,739 L 309,1346 659,739 1358,739 Z"/>
  </g>
  <g id="bullet-char-template-10132" transform="scale(0.00048828125,-0.00048828125)">
   <path d="M 2015,739 L 1276,0 717,0 1260,543 174,543 174,936 1260,936 717,1481 1274,1481 2015,739 Z"/>
  </g>
  <g id="bullet-char-template-10007" transform="scale(0.00048828125,-0.00048828125)">
   <path d="M 0,-2 C -7,14 -16,27 -25,37 L 356,567 C 262,823 215,952 215,954 215,979 228,992 255,992 264,992 276,990 289,987 310,991 331,999 354,1012 L 381,999 492,748 772,1049 836,1024 860,1049 C 881,1039 901,1025 922,1006 886,937 835,863 770,784 769,783 710,716 594,584 L 774,223 C 774,196 753,168 711,139 L 727,119 C 717,90 699,76 672,76 641,76 570,178 457,381 L 164,-76 C 142,-110 111,-127 72,-127 30,-127 9,-110 8,-76 1,-67 -2,-52 -2,-32 -2,-23 -1,-13 0,-2 Z"/>
  </g>
  <g id="bullet-char-template-10004" transform="scale(0.00048828125,-0.00048828125)">
   <path d="M 285,-33 C 182,-33 111,30 74,156 52,228 41,333 41,471 41,549 55,616 82,672 116,743 169,778 240,778 293,778 328,747 346,684 L 369,508 C 377,444 397,411 428,410 L 1163,1116 C 1174,1127 1196,1133 1229,1133 1271,1133 1292,1118 1292,1087 L 1292,965 C 1292,929 1282,901 1262,881 L 442,47 C 390,-6 338,-33 285,-33 Z"/>
  </g>
  <g id="bullet-char-template-9679" transform="scale(0.00048828125,-0.00048828125)">
   <path d="M 813,0 C 632,0 489,54 383,161 276,268 223,411 223,592 223,773 276,916 383,1023 489,1130 632,1184 813,1184 992,1184 1136,1130 1245,1023 1353,916 1407,772 1407,592 1407,412 1353,268 1245,161 1136,54 992,0 813,0 Z"/>
  </g>
  <g id="bullet-char-template-8226" transform="scale(0.00048828125,-0.00048828125)">
   <path d="M 346,457 C 273,457 209,483 155,535 101,586 74,649 74,723 74,796 101,859 155,911 209,963 273,989 346,989 419,989 480,963 531,910 582,859 608,796 608,723 608,648 583,586 532,535 482,483 420,457 346,457 Z"/>
  </g>
  <g id="bullet-char-template-8211" transform="scale(0.00048828125,-0.00048828125)">
   <path d="M -4,459 L 1135,459 1135,606 -4,606 -4,459 Z"/>
  </g>
  <g id="bullet-char-template-61548" transform="scale(0.00048828125,-0.00048828125)">
   <path d="M 173,740 C 173,903 231,1043 346,1159 462,1274 601,1332 765,1332 928,1332 1067,1274 1183,1159 1299,1043 1357,903 1357,740 1357,577 1299,437 1183,322 1067,206 928,148 765,148 601,148 462,206 346,322 231,437 173,577 173,740 Z"/>
  </g>
 </defs>
 <g ooo:name="page6" class="Page">
  <g class="com.sun.star.drawing.ClosedBezierShape">
   <g id="id3">
    <rect class="BoundingBox" stroke="none" fill="none" x="12298" y="8101" width="2503" height="2002"/>
    <path fill="rgb(229,193,14)" stroke="none" d="M 14799,10102 C 14174,10102 13549,10102 12924,10102 12715,9769 12507,9435 12298,9102 12507,8768 12715,8435 12924,8101 13549,8101 14174,8101 14799,8101 14591,8435 14382,8768 14174,9102 14382,9435 14591,9769 14799,10102 Z"/>
   </g>
  </g>
  <g class="com.sun.star.drawing.ClosedBezierShape">
   <g id="id4">
    <rect class="BoundingBox" stroke="none" fill="none" x="10299" y="8099" width="2503" height="2002"/>
    <path fill="rgb(229,193,14)" stroke="none" d="M 12800,10100 C 12175,10100 11550,10100 10925,10100 10716,9767 10508,9433 10299,9100 10508,8766 10716,8433 10925,8099 11550,8099 12175,8099 12800,8099 12592,8433 12383,8766 12175,9100 12383,9433 12592,9767 12800,10100 Z"/>
   </g>
  </g>
  <g class="com.sun.star.drawing.ClosedBezierShape">
   <g id="id5">
    <rect class="BoundingBox" stroke="none" fill="none" x="10500" y="6000" width="2502" height="2002"/>
    <path fill="rgb(229,193,14)" stroke="none" d="M 10500,6000 C 11125,6000 11750,6000 12375,6000 12584,6333 12792,6667 13001,7000 12792,7334 12584,7667 12375,8001 11750,8001 11125,8001 10500,8001 10708,7667 10917,7334 11125,7000 10917,6667 10708,6333 10500,6000 Z"/>
   </g>
  </g>
  <g class="Group">
   <g class="com.sun.star.drawing.ClosedBezierShape">
    <g id="id6">
     <rect class="BoundingBox" stroke="none" fill="none" x="8500" y="6000" width="3502" height="1501"/>
     <path fill="rgb(229,193,14)" stroke="none" d="M 8500,7500 C 8500,7000 8500,6500 8500,6000 9667,6000 10833,6000 12000,6000 12000,6500 12000,7000 12000,7500 10833,7500 9667,7500 8500,7500 Z"/>
    </g>
   </g>
   <g class="com.sun.star.drawing.ClosedBezierShape">
    <g id="id7">
     <rect class="BoundingBox" stroke="none" fill="none" x="8781" y="6252" width="320" height="446"/>
     <path fill="rgb(0,0,0)" stroke="none" d="M 8782,6253 C 8803,6253 8824,6253 8845,6253 8877,6332 8909,6411 8940,6491 8972,6411 9004,6332 9036,6253 9057,6253 9078,6253 9099,6253 9099,6401 9099,6549 9099,6697 9078,6697 9057,6697 9036,6697 9036,6602 9036,6507 9036,6411 9015,6464 8993,6517 8972,6570 8951,6570 8930,6570 8909,6570 8888,6517 8866,6464 8845,6411 8845,6507 8845,6602 8845,6697 8824,6697 8803,6697 8782,6697 8782,6549 8782,6401 8782,6253 Z"/>
    </g>
   </g>
   <g class="com.sun.star.drawing.ClosedBezierShape">
    <g id="id8">
     <rect class="BoundingBox" stroke="none" fill="none" x="9162" y="6379" width="193" height="447"/>
     <path fill="rgb(0,0,0)" stroke="none" d="M 9226,6730 C 9226,6747 9212,6762 9194,6762 L 9194,6825 C 9247,6825 9290,6782 9290,6730 L 9353,6379 9290,6379 9258,6554 9226,6379 9163,6379 9226,6730 Z"/>
    </g>
   </g>
   <g class="com.sun.star.drawing.ClosedBezierShape">
    <g id="id9">
     <rect class="BoundingBox" stroke="none" fill="none" x="9577" y="6252" width="193" height="447"/>
     <path fill="rgb(0,0,0)" stroke="none" d="M 9578,6252 L 9578,6698 9673,6698 C 9726,6698 9768,6655 9768,6603 L 9768,6347 C 9768,6295 9726,6252 9673,6252 L 9578,6252 Z M 9641,6316 L 9673,6316 C 9691,6316 9705,6330 9705,6347 L 9705,6603 C 9705,6620 9691,6635 9673,6635 L 9641,6635 9641,6316 Z"/>
    </g>
   </g>
   <g class="com.sun.star.drawing.ClosedBezierShape">
    <g id="id10">
     <rect class="BoundingBox" stroke="none" fill="none" x="9831" y="6379" width="193" height="320"/>
     <path fill="rgb(0,0,0)" stroke="none" d="M 9927,6379 C 9874,6379 9832,6422 9832,6475 L 9832,6603 C 9832,6655 9874,6698 9927,6698 9980,6698 10022,6655 10022,6603 L 9959,6603 C 9959,6620 9945,6635 9927,6635 9909,6635 9895,6620 9895,6603 L 9895,6571 10022,6571 10022,6475 C 10022,6422 9980,6379 9927,6379 Z M 9927,6443 C 9945,6443 9959,6457 9959,6475 L 9959,6507 9895,6507 9895,6475 C 9895,6457 9909,6443 9927,6443 Z"/>
    </g>
   </g>
   <g class="com.sun.star.drawing.ClosedBezierShape">
    <g id="id11">
     <rect class="BoundingBox" stroke="none" fill="none" x="10085" y="6379" width="193" height="319"/>
     <path fill="rgb(0,0,0)" stroke="none" d="M 10086,6379 C 10107,6379 10128,6379 10149,6379 10160,6432 10170,6485 10181,6538 10192,6485 10202,6432 10213,6379 10234,6379 10255,6379 10276,6379 10255,6485 10234,6591 10213,6697 10192,6697 10170,6697 10149,6697 10128,6591 10107,6485 10086,6379 Z"/>
    </g>
   </g>
   <g class="com.sun.star.drawing.ClosedBezierShape">
    <g id="id12">
     <rect class="BoundingBox" stroke="none" fill="none" x="10339" y="6252" width="66" height="447"/>
     <path fill="rgb(0,0,0)" stroke="none" d="M 10340,6252 C 10340,6273 10340,6294 10340,6316 10361,6316 10382,6316 10403,6316 10403,6294 10403,6273 10403,6252 10382,6252 10361,6252 10340,6252 Z M 10340,6379 C 10340,6485 10340,6592 10340,6698 10361,6698 10382,6698 10403,6698 10403,6592 10403,6485 10403,6379 10382,6379 10361,6379 10340,6379 Z"/>
    </g>
   </g>
   <g class="com.sun.star.drawing.ClosedBezierShape">
    <g id="id13">
     <rect class="BoundingBox" stroke="none" fill="none" x="10466" y="6379" width="193" height="320"/>
     <path fill="rgb(0,0,0)" stroke="none" d="M 10562,6379 C 10509,6379 10467,6422 10467,6475 L 10467,6603 C 10467,6655 10509,6698 10562,6698 10615,6698 10657,6655 10657,6603 L 10594,6603 C 10594,6620 10580,6635 10562,6635 10544,6635 10530,6620 10530,6603 L 10530,6475 C 10530,6457 10544,6443 10562,6443 10580,6443 10594,6457 10594,6475 L 10657,6475 C 10657,6422 10615,6379 10562,6379 Z"/>
    </g>
   </g>
   <g class="com.sun.star.drawing.ClosedBezierShape">
    <g id="id14">
     <rect class="BoundingBox" stroke="none" fill="none" x="10720" y="6379" width="193" height="320"/>
     <path fill="rgb(0,0,0)" stroke="none" d="M 10816,6379 C 10763,6379 10721,6422 10721,6475 L 10721,6603 C 10721,6655 10763,6698 10816,6698 10869,6698 10911,6655 10911,6603 L 10848,6603 C 10848,6620 10834,6635 10816,6635 10798,6635 10784,6620 10784,6603 L 10784,6571 10911,6571 10911,6475 C 10911,6422 10869,6379 10816,6379 Z M 10816,6443 C 10834,6443 10848,6457 10848,6475 L 10848,6507 10784,6507 10784,6475 C 10784,6457 10798,6443 10816,6443 Z"/>
    </g>
   </g>
  </g>
  <g class="Group">
   <g class="com.sun.star.drawing.ClosedBezierShape">
    <g id="id15">
     <rect class="BoundingBox" stroke="none" fill="none" x="8500" y="7000" width="3502" height="3502"/>
     <path fill="rgb(255,217,0)" stroke="none" d="M 8500,10500 C 8500,9333 8500,8167 8500,7000 9667,7000 10833,7000 12000,7000 12000,8167 12000,9333 12000,10500 10833,10500 9667,10500 8500,10500 Z"/>
    </g>
   </g>
   <g class="com.sun.star.drawing.ClosedBezierShape">
    <g id="id16">
     <rect class="BoundingBox" stroke="none" fill="none" x="8765" y="8283" width="225" height="276"/>
     <path fill="rgb(0,0,0)" stroke="none" d="M 8829,8558 C 8813,8544 8796,8530 8780,8516 8801,8487 8822,8458 8843,8430 8817,8421 8791,8412 8765,8404 8772,8383 8779,8362 8786,8341 8809,8355 8832,8370 8855,8384 8851,8350 8848,8317 8844,8283 8867,8283 8890,8283 8913,8283 8909,8317 8904,8350 8900,8384 8923,8371 8945,8358 8968,8345 8975,8365 8982,8385 8989,8405 8962,8413 8936,8421 8910,8429 8930,8458 8951,8486 8971,8515 8955,8529 8939,8543 8922,8557 8907,8526 8892,8495 8877,8464 8861,8496 8845,8527 8829,8558 Z"/>
    </g>
   </g>
   <g class="com.sun.star.drawing.ClosedBezierShape">
    <g id="id17">
     <rect class="BoundingBox" stroke="none" fill="none" x="9281" y="8231" width="217" height="397"/>
     <path fill="rgb(0,0,0)" stroke="none" d="M 9282,8627 L 9282,8232 9388,8232 C 9425,8232 9452,8242 9470,8264 9487,8285 9496,8313 9496,8347 9496,8381 9487,8408 9469,8430 9451,8451 9425,8462 9390,8462 L 9343,8462 9343,8627 9282,8627 Z M 9343,8406 L 9386,8406 C 9401,8406 9413,8401 9421,8390 9430,8380 9434,8366 9434,8348 9434,8329 9430,8315 9421,8305 9413,8294 9401,8289 9386,8289 L 9343,8289 9343,8406 Z"/>
    </g>
   </g>
   <g class="com.sun.star.drawing.ClosedBezierShape">
    <g id="id18">
     <rect class="BoundingBox" stroke="none" fill="none" x="9536" y="8332" width="207" height="303"/>
     <path fill="rgb(0,0,0)" stroke="none" d="M 9618,8634 C 9602,8634 9587,8630 9575,8622 9563,8614 9554,8600 9547,8581 9540,8562 9537,8536 9537,8503 L 9538,8332 9598,8332 9598,8506 C 9598,8535 9601,8555 9607,8565 9614,8575 9622,8580 9632,8580 9646,8580 9656,8573 9665,8560 9673,8547 9677,8527 9677,8500 L 9677,8332 9737,8332 9737,8581 C 9737,8589 9737,8597 9738,8605 9738,8612 9739,8620 9742,8627 L 9686,8627 C 9684,8622 9683,8616 9682,8610 9681,8605 9681,8598 9681,8592 9675,8605 9666,8615 9655,8623 9644,8630 9632,8634 9618,8634 Z"/>
    </g>
   </g>
   <g class="com.sun.star.drawing.ClosedBezierShape">
    <g id="id19">
     <rect class="BoundingBox" stroke="none" fill="none" x="9788" y="8202" width="220" height="433"/>
     <path fill="rgb(0,0,0)" stroke="none" d="M 9908,8634 C 9896,8634 9884,8631 9872,8624 9861,8618 9852,8608 9845,8594 L 9837,8627 9788,8627 9788,8203 9854,8203 9854,8208 C 9852,8211 9851,8214 9850,8217 9850,8219 9849,8225 9849,8232 L 9849,8367 C 9856,8353 9865,8343 9877,8336 9889,8329 9901,8325 9913,8325 9932,8325 9948,8330 9962,8340 9976,8349 9987,8365 9995,8388 10002,8410 10006,8439 10006,8477 10006,8516 10002,8547 9993,8570 9984,8593 9972,8609 9957,8619 9942,8629 9926,8634 9908,8634 Z M 9896,8581 C 9906,8581 9915,8579 9922,8573 9929,8568 9935,8558 9939,8543 9944,8529 9946,8508 9946,8482 9946,8445 9942,8418 9933,8401 9925,8385 9913,8376 9897,8376 9883,8376 9872,8385 9863,8402 9854,8419 9850,8445 9849,8480 9849,8515 9853,8541 9861,8557 9869,8573 9881,8581 9896,8581 Z"/>
    </g>
   </g>
   <g class="com.sun.star.drawing.ClosedBezierShape">
    <g id="id20">
     <rect class="BoundingBox" stroke="none" fill="none" x="10050" y="8203" width="195" height="425"/>
     <path fill="rgb(0,0,0)" stroke="none" d="M 10051,8627 C 10051,8609 10051,8591 10051,8574 10073,8574 10095,8574 10117,8574 10117,8468 10117,8363 10117,8257 10096,8257 10075,8257 10054,8257 10054,8239 10054,8221 10054,8203 10095,8203 10136,8203 10178,8203 10178,8327 10178,8450 10178,8574 10199,8574 10221,8574 10243,8574 10243,8591 10243,8609 10243,8627 10179,8627 10115,8627 10051,8627 Z"/>
    </g>
   </g>
   <g class="com.sun.star.drawing.ClosedBezierShape">
    <g id="id21">
     <rect class="BoundingBox" stroke="none" fill="none" x="10314" y="8200" width="174" height="428"/>
     <path fill="rgb(0,0,0)" stroke="none" d="M 10314,8627 L 10314,8574 10373,8574 10373,8385 10317,8385 10317,8332 10434,8332 10434,8574 10487,8574 10487,8627 10314,8627 Z M 10401,8278 C 10389,8278 10380,8274 10373,8267 10365,8259 10361,8250 10361,8239 10361,8229 10365,8220 10373,8212 10380,8204 10389,8201 10401,8201 10411,8201 10420,8204 10428,8212 10436,8220 10440,8229 10440,8239 10440,8250 10436,8259 10428,8267 10420,8274 10411,8278 10401,8278 Z"/>
    </g>
   </g>
   <g class="com.sun.star.drawing.ClosedBezierShape">
    <g id="id22">
     <rect class="BoundingBox" stroke="none" fill="none" x="10549" y="8325" width="207" height="311"/>
     <path fill="rgb(0,0,0)" stroke="none" d="M 10655,8634 C 10611,8634 10576,8622 10550,8597 L 10574,8545 10577,8539 10581,8541 C 10583,8544 10584,8548 10586,8551 10587,8554 10590,8558 10595,8562 10603,8569 10612,8574 10621,8577 10631,8580 10642,8582 10654,8582 10668,8582 10679,8578 10687,8572 10694,8565 10698,8556 10698,8545 10698,8536 10694,8528 10687,8521 10679,8514 10665,8507 10646,8500 10621,8490 10601,8479 10586,8465 10570,8451 10562,8432 10562,8408 10562,8385 10571,8365 10588,8349 10604,8333 10627,8325 10657,8325 10698,8325 10730,8339 10753,8367 L 10724,8410 10721,8416 10717,8413 C 10716,8409 10715,8406 10714,8402 10712,8399 10709,8395 10704,8390 10698,8386 10691,8382 10683,8380 10675,8378 10668,8376 10660,8376 10648,8376 10638,8379 10630,8384 10622,8390 10618,8397 10618,8406 10618,8416 10623,8424 10631,8431 10640,8437 10655,8444 10675,8452 10703,8462 10723,8474 10735,8487 10748,8500 10754,8519 10754,8541 10754,8569 10745,8592 10728,8609 10710,8626 10686,8634 10655,8634 Z"/>
    </g>
   </g>
   <g class="com.sun.star.drawing.ClosedBezierShape">
    <g id="id23">
     <rect class="BoundingBox" stroke="none" fill="none" x="10808" y="8202" width="205" height="426"/>
     <path fill="rgb(0,0,0)" stroke="none" d="M 10809,8203 L 10875,8203 10875,8208 C 10873,8211 10871,8214 10871,8217 10870,8219 10870,8225 10870,8232 L 10870,8372 C 10878,8356 10888,8344 10901,8336 10913,8329 10926,8325 10940,8325 10962,8325 10980,8334 10993,8353 11006,8371 11012,8402 11012,8447 L 11012,8627 10951,8627 10951,8448 C 10951,8422 10948,8404 10943,8394 10938,8383 10930,8378 10921,8378 10907,8378 10895,8385 10885,8399 10875,8413 10870,8432 10870,8458 L 10870,8627 10809,8627 10809,8203 Z"/>
    </g>
   </g>
   <g class="com.sun.star.drawing.ClosedBezierShape">
    <g id="id24">
     <rect class="BoundingBox" stroke="none" fill="none" x="8765" y="8952" width="225" height="276"/>
     <path fill="rgb(0,0,0)" stroke="none" d="M 8829,9227 C 8813,9213 8796,9199 8780,9185 8801,9156 8822,9127 8843,9099 8817,9090 8791,9081 8765,9073 8772,9052 8779,9031 8786,9010 8809,9024 8832,9039 8855,9053 8851,9019 8848,8986 8844,8952 8867,8952 8890,8952 8913,8952 8909,8986 8904,9019 8900,9053 8923,9040 8945,9027 8968,9014 8975,9034 8982,9054 8989,9074 8962,9082 8936,9090 8910,9098 8930,9127 8951,9155 8971,9184 8955,9198 8939,9212 8922,9226 8907,9195 8892,9164 8877,9133 8861,9165 8845,9196 8829,9227 Z"/>
    </g>
   </g>
   <g class="com.sun.star.drawing.ClosedBezierShape">
    <g id="id25">
     <rect class="BoundingBox" stroke="none" fill="none" x="9275" y="8895" width="219" height="409"/>
     <path fill="rgb(0,0,0)" stroke="none" d="M 9380,9303 C 9358,9303 9339,9300 9321,9293 9303,9286 9288,9275 9275,9260 L 9303,9202 9305,9196 9310,9198 C 9311,9202 9312,9205 9313,9209 9314,9213 9316,9218 9321,9223 9329,9230 9338,9236 9348,9241 9357,9245 9368,9247 9379,9247 9396,9247 9408,9242 9418,9233 9427,9223 9432,9210 9432,9191 9432,9182 9431,9174 9428,9166 9425,9158 9420,9151 9411,9143 9403,9135 9390,9126 9373,9116 9341,9100 9319,9082 9307,9064 9294,9045 9288,9023 9288,8997 9288,8965 9297,8940 9316,8922 9335,8904 9359,8895 9388,8895 9429,8895 9460,8910 9484,8939 L 9454,8990 9452,8995 9447,8992 C 9446,8989 9445,8985 9445,8981 9444,8977 9441,8972 9437,8967 9430,8960 9423,8955 9416,8953 9409,8951 9401,8950 9391,8950 9378,8950 9368,8954 9360,8962 9352,8970 9348,8980 9348,8993 9348,9003 9350,9011 9353,9019 9356,9027 9362,9035 9371,9043 9380,9050 9394,9059 9412,9069 9443,9086 9464,9103 9475,9121 9487,9139 9492,9161 9492,9186 9492,9208 9488,9227 9480,9245 9471,9263 9459,9277 9442,9287 9425,9298 9405,9303 9380,9303 Z"/>
    </g>
   </g>
   <g class="com.sun.star.drawing.ClosedBezierShape">
    <g id="id26">
     <rect class="BoundingBox" stroke="none" fill="none" x="9536" y="9001" width="207" height="303"/>
     <path fill="rgb(0,0,0)" stroke="none" d="M 9618,9303 C 9602,9303 9587,9299 9575,9291 9563,9283 9554,9269 9547,9250 9540,9231 9537,9205 9537,9172 L 9538,9001 9598,9001 9598,9175 C 9598,9204 9601,9224 9607,9234 9614,9244 9622,9249 9632,9249 9646,9249 9656,9242 9665,9229 9673,9216 9677,9196 9677,9169 L 9677,9001 9737,9001 9737,9250 C 9737,9258 9737,9266 9738,9274 9738,9281 9739,9289 9742,9296 L 9686,9296 C 9684,9291 9683,9285 9682,9279 9681,9274 9681,9267 9681,9261 9675,9274 9666,9284 9655,9292 9644,9299 9632,9303 9618,9303 Z"/>
    </g>
   </g>
   <g class="com.sun.star.drawing.ClosedBezierShape">
    <g id="id27">
     <rect class="BoundingBox" stroke="none" fill="none" x="9788" y="8871" width="220" height="433"/>
     <path fill="rgb(0,0,0)" stroke="none" d="M 9908,9303 C 9896,9303 9884,9300 9872,9293 9861,9287 9852,9277 9845,9263 L 9837,9296 9788,9296 9788,8872 9854,8872 9854,8877 C 9852,8880 9851,8883 9850,8886 9850,8888 9849,8894 9849,8901 L 9849,9036 C 9856,9022 9865,9012 9877,9005 9889,8998 9901,8994 9913,8994 9932,8994 9948,8999 9962,9009 9976,9018 9987,9034 9995,9057 10002,9079 10006,9108 10006,9146 10006,9185 10002,9216 9993,9239 9984,9262 9972,9278 9957,9288 9942,9298 9926,9303 9908,9303 Z M 9896,9250 C 9906,9250 9915,9248 9922,9242 9929,9237 9935,9227 9939,9212 9944,9198 9946,9177 9946,9151 9946,9114 9942,9087 9933,9070 9925,9054 9913,9045 9897,9045 9883,9045 9872,9054 9863,9071 9854,9088 9850,9114 9849,9149 9849,9184 9853,9210 9861,9226 9869,9242 9881,9250 9896,9250 Z"/>
    </g>
   </g>
   <g class="com.sun.star.drawing.ClosedBezierShape">
    <g id="id28">
     <rect class="BoundingBox" stroke="none" fill="none" x="10041" y="8994" width="207" height="311"/>
     <path fill="rgb(0,0,0)" stroke="none" d="M 10147,9303 C 10103,9303 10068,9291 10042,9266 L 10066,9214 10069,9208 10073,9210 C 10075,9213 10076,9217 10078,9220 10079,9223 10082,9227 10087,9231 10095,9238 10104,9243 10113,9246 10123,9249 10134,9251 10146,9251 10160,9251 10171,9247 10179,9241 10186,9234 10190,9225 10190,9214 10190,9205 10186,9197 10179,9190 10171,9183 10157,9176 10138,9169 10113,9159 10093,9148 10078,9134 10062,9120 10054,9101 10054,9077 10054,9054 10063,9034 10080,9018 10096,9002 10119,8994 10149,8994 10190,8994 10222,9008 10245,9036 L 10216,9079 10213,9085 10209,9082 C 10208,9078 10207,9075 10206,9071 10204,9068 10201,9064 10196,9059 10190,9055 10183,9051 10175,9049 10167,9047 10160,9045 10152,9045 10140,9045 10130,9048 10122,9053 10114,9059 10110,9066 10110,9075 10110,9085 10115,9093 10123,9100 10132,9106 10147,9113 10167,9121 10195,9131 10215,9143 10227,9156 10240,9169 10246,9188 10246,9210 10246,9238 10237,9261 10220,9278 10202,9295 10178,9303 10147,9303 Z"/>
    </g>
   </g>
   <g class="com.sun.star.drawing.ClosedBezierShape">
    <g id="id29">
     <rect class="BoundingBox" stroke="none" fill="none" x="10294" y="8994" width="218" height="311"/>
     <path fill="rgb(0,0,0)" stroke="none" d="M 10418,9303 C 10381,9303 10352,9290 10329,9263 10306,9236 10294,9199 10294,9150 10294,9117 10300,9089 10311,9066 10321,9042 10336,9025 10354,9012 10373,9000 10393,8994 10416,8994 10438,8994 10457,8998 10473,9007 10488,9016 10501,9028 10510,9044 L 10481,9087 10477,9092 10473,9089 C 10472,9086 10472,9082 10471,9079 10471,9075 10468,9071 10464,9066 10453,9055 10438,9049 10419,9049 10403,9049 10388,9057 10375,9072 10363,9088 10356,9114 10356,9149 10356,9184 10362,9209 10375,9225 10388,9241 10403,9249 10420,9249 10431,9249 10441,9247 10451,9242 10461,9237 10470,9229 10478,9217 L 10507,9262 C 10495,9276 10482,9287 10466,9293 10450,9300 10434,9303 10418,9303 Z"/>
    </g>
   </g>
   <g class="com.sun.star.drawing.ClosedBezierShape">
    <g id="id30">
     <rect class="BoundingBox" stroke="none" fill="none" x="10567" y="8994" width="201" height="304"/>
     <path fill="rgb(0,0,0)" stroke="none" d="M 10568,9001 L 10630,9001 10630,9045 C 10636,9029 10646,9016 10659,9007 10672,8999 10686,8994 10700,8994 10727,8994 10750,9006 10767,9029 L 10742,9081 10740,9086 10735,9084 C 10733,9081 10732,9077 10731,9073 10730,9070 10727,9065 10722,9061 10712,9053 10702,9049 10691,9049 10681,9049 10671,9052 10661,9057 10652,9063 10644,9072 10638,9086 10632,9099 10629,9117 10629,9141 L 10629,9297 10568,9297 10568,9001 Z"/>
    </g>
   </g>
   <g class="com.sun.star.drawing.ClosedBezierShape">
    <g id="id31">
     <rect class="BoundingBox" stroke="none" fill="none" x="10822" y="8869" width="174" height="429"/>
     <path fill="rgb(0,0,0)" stroke="none" d="M 10822,9296 L 10822,9243 10881,9243 10881,9054 10825,9054 10825,9001 10942,9001 10942,9243 10995,9243 10995,9296 10822,9296 Z M 10909,8947 C 10897,8947 10888,8943 10881,8936 10873,8928 10869,8919 10869,8908 10869,8898 10873,8889 10881,8881 10888,8873 10897,8870 10909,8870 10919,8870 10928,8874 10936,8881 10944,8889 10948,8898 10948,8908 10948,8919 10944,8928 10936,8936 10928,8943 10919,8947 10909,8947 Z"/>
    </g>
   </g>
   <g class="com.sun.star.drawing.ClosedBezierShape">
    <g id="id32">
     <rect class="BoundingBox" stroke="none" fill="none" x="11058" y="8871" width="220" height="433"/>
     <path fill="rgb(0,0,0)" stroke="none" d="M 11178,9303 C 11166,9303 11154,9300 11142,9293 11131,9287 11122,9277 11115,9263 L 11107,9296 11058,9296 11058,8872 11124,8872 11124,8877 C 11122,8880 11121,8883 11120,8886 11120,8888 11119,8894 11119,8901 L 11119,9036 C 11126,9022 11135,9012 11147,9005 11159,8998 11171,8994 11183,8994 11202,8994 11218,8999 11232,9009 11246,9018 11257,9034 11265,9057 11272,9079 11276,9108 11276,9146 11276,9185 11272,9216 11263,9239 11254,9262 11242,9278 11227,9288 11212,9298 11196,9303 11178,9303 Z M 11166,9250 C 11176,9250 11185,9248 11192,9242 11199,9237 11205,9227 11209,9212 11214,9198 11216,9177 11216,9151 11216,9114 11212,9087 11203,9070 11195,9054 11183,9045 11167,9045 11153,9045 11142,9054 11133,9071 11124,9088 11120,9114 11119,9149 11119,9184 11123,9210 11131,9226 11139,9242 11151,9250 11166,9250 Z"/>
    </g>
   </g>
   <g class="com.sun.star.drawing.ClosedBezierShape">
    <g id="id33">
     <rect class="BoundingBox" stroke="none" fill="none" x="11308" y="8994" width="215" height="311"/>
     <path fill="rgb(0,0,0)" stroke="none" d="M 11427,9303 C 11392,9303 11363,9290 11341,9265 11319,9240 11309,9202 11309,9151 11309,9098 11319,9059 11340,9033 11361,9007 11388,8994 11420,8994 11450,8994 11474,9006 11493,9029 11512,9052 11521,9089 11521,9141 11521,9145 11521,9150 11521,9155 11521,9159 11521,9164 11521,9167 L 11368,9167 C 11369,9198 11375,9219 11387,9232 11399,9244 11413,9250 11430,9250 11451,9250 11469,9241 11484,9222 L 11515,9258 C 11493,9288 11464,9303 11427,9303 Z M 11369,9116 L 11462,9116 C 11462,9070 11447,9047 11418,9047 11405,9047 11394,9052 11386,9063 11377,9074 11371,9091 11369,9116 Z"/>
    </g>
   </g>
  </g>
  <g class="com.sun.star.drawing.ClosedBezierShape">
   <g id="id34">
    <rect class="BoundingBox" stroke="none" fill="none" x="12500" y="6000" width="2502" height="2002"/>
    <path fill="rgb(229,193,14)" stroke="none" d="M 12500,6000 C 13125,6000 13750,6000 14375,6000 14584,6333 14792,6667 15001,7000 14792,7334 14584,7667 14375,8001 13750,8001 13125,8001 12500,8001 12708,7667 12917,7334 13125,7000 12917,6667 12708,6333 12500,6000 Z"/>
   </g>
  </g>
  <g class="Group">
   <g class="com.sun.star.drawing.ClosedBezierShape">
    <g id="id35">
     <rect class="BoundingBox" stroke="none" fill="none" x="13500" y="6000" width="4001" height="1501"/>
     <path fill="rgb(229,193,14)" stroke="none" d="M 13500,7500 C 13500,7000 13500,6500 13500,6000 14833,6000 16167,6000 17500,6000 17500,6500 17500,7000 17500,7500 16167,7500 14833,7500 13500,7500 Z"/>
    </g>
   </g>
   <g class="com.sun.star.drawing.ClosedBezierShape">
    <g id="id36">
     <rect class="BoundingBox" stroke="none" fill="none" x="13781" y="6252" width="320" height="446"/>
     <path fill="rgb(0,0,0)" stroke="none" d="M 13782,6253 C 13803,6253 13824,6253 13845,6253 13877,6332 13909,6411 13940,6491 13972,6411 14004,6332 14036,6253 14057,6253 14078,6253 14099,6253 14099,6401 14099,6549 14099,6697 14078,6697 14057,6697 14036,6697 14036,6602 14036,6507 14036,6411 14015,6464 13993,6517 13972,6570 13951,6570 13930,6570 13909,6570 13888,6517 13866,6464 13845,6411 13845,6507 13845,6602 13845,6697 13824,6697 13803,6697 13782,6697 13782,6549 13782,6401 13782,6253 Z"/>
    </g>
   </g>
   <g class="com.sun.star.drawing.ClosedBezierShape">
    <g id="id37">
     <rect class="BoundingBox" stroke="none" fill="none" x="14162" y="6379" width="193" height="447"/>
     <path fill="rgb(0,0,0)" stroke="none" d="M 14226,6730 C 14226,6747 14212,6762 14194,6762 L 14194,6825 C 14247,6825 14290,6782 14290,6730 L 14353,6379 14290,6379 14258,6554 14226,6379 14163,6379 14226,6730 Z"/>
    </g>
   </g>
   <g class="com.sun.star.drawing.ClosedBezierShape">
    <g id="id38">
     <rect class="BoundingBox" stroke="none" fill="none" x="14577" y="6252" width="256" height="447"/>
     <path fill="rgb(0,0,0)" stroke="none" d="M 14705,6401 C 14712,6436 14720,6472 14727,6507 14712,6507 14697,6507 14682,6507 14690,6472 14697,6436 14705,6401 Z M 14578,6698 C 14599,6698 14620,6698 14641,6698 14650,6656 14659,6613 14668,6571 14693,6571 14717,6571 14741,6571 14750,6613 14759,6656 14768,6698 14789,6698 14810,6698 14832,6698 14800,6549 14768,6401 14736,6252 14715,6252 14694,6252 14673,6252 14641,6401 14609,6549 14578,6698 Z"/>
    </g>
   </g>
   <g class="com.sun.star.drawing.ClosedBezierShape">
    <g id="id39">
     <rect class="BoundingBox" stroke="none" fill="none" x="14894" y="6379" width="193" height="447"/>
     <path fill="rgb(0,0,0)" stroke="none" d="M 14895,6379 L 14895,6825 14958,6825 14958,6635 C 14958,6670 14987,6698 15022,6698 15057,6698 15085,6670 15085,6635 L 15085,6443 C 15085,6407 15057,6379 15022,6379 14987,6379 14958,6407 14958,6443 L 14958,6379 14895,6379 Z M 14990,6443 C 15008,6443 15022,6457 15022,6475 L 15022,6603 C 15022,6620 15008,6635 14990,6635 14972,6635 14958,6620 14958,6603 L 14958,6475 C 14958,6457 14972,6443 14990,6443 Z"/>
    </g>
   </g>
   <g class="com.sun.star.drawing.ClosedBezierShape">
    <g id="id40">
     <rect class="BoundingBox" stroke="none" fill="none" x="15148" y="6379" width="193" height="447"/>
     <path fill="rgb(0,0,0)" stroke="none" d="M 15149,6379 L 15149,6825 15212,6825 15212,6635 C 15212,6670 15241,6698 15276,6698 15311,6698 15339,6670 15339,6635 L 15339,6443 C 15339,6407 15311,6379 15276,6379 15241,6379 15212,6407 15212,6443 L 15212,6379 15149,6379 Z M 15244,6443 C 15262,6443 15276,6457 15276,6475 L 15276,6603 C 15276,6620 15262,6635 15244,6635 15226,6635 15212,6620 15212,6603 L 15212,6475 C 15212,6457 15226,6443 15244,6443 Z"/>
    </g>
   </g>
  </g>
  <g class="Group">
   <g class="com.sun.star.drawing.ClosedBezierShape">
    <g id="id41">
     <rect class="BoundingBox" stroke="none" fill="none" x="13500" y="7000" width="4001" height="3502"/>
     <path fill="rgb(255,217,0)" stroke="none" d="M 13500,10500 C 13500,9333 13500,8167 13500,7000 14833,7000 16167,7000 17500,7000 17500,8167 17500,9333 17500,10500 16167,10500 14833,10500 13500,10500 Z"/>
    </g>
   </g>
   <g class="com.sun.star.drawing.ClosedBezierShape">
    <g id="id42">
     <rect class="BoundingBox" stroke="none" fill="none" x="13765" y="7948" width="226" height="277"/>
     <path fill="rgb(0,0,0)" stroke="none" d="M 13829,8223 C 13813,8209 13797,8195 13780,8181 13801,8153 13822,8124 13843,8095 13818,8086 13792,8078 13766,8069 13773,8048 13780,8027 13787,8006 13810,8021 13833,8035 13855,8049 13852,8016 13848,7982 13845,7949 13868,7949 13891,7949 13914,7949 13909,7982 13905,8016 13901,8049 13923,8036 13946,8023 13968,8010 13975,8030 13982,8050 13989,8070 13963,8078 13936,8086 13910,8094 13931,8123 13951,8152 13972,8181 13955,8195 13939,8209 13923,8223 13907,8192 13892,8161 13877,8130 13861,8161 13845,8192 13829,8223 Z"/>
    </g>
   </g>
   <g class="com.sun.star.drawing.ClosedBezierShape">
    <g id="id43">
     <rect class="BoundingBox" stroke="none" fill="none" x="14273" y="7892" width="230" height="409"/>
     <path fill="rgb(0,0,0)" stroke="none" d="M 14401,8300 C 14378,8299 14356,8293 14337,8280 14318,8266 14303,8245 14291,8215 14280,8185 14274,8146 14274,8097 14274,8056 14278,8023 14286,7996 14293,7970 14304,7949 14317,7934 14330,7919 14344,7908 14359,7902 14374,7896 14389,7893 14404,7893 14428,7893 14448,7898 14464,7910 14480,7922 14493,7937 14501,7957 L 14468,7997 14464,8002 14461,7998 C 14461,7995 14460,7991 14460,7987 14459,7983 14458,7978 14454,7972 14447,7963 14440,7957 14432,7953 14424,7949 14416,7948 14407,7948 14395,7948 14383,7953 14372,7963 14361,7973 14352,7989 14345,8010 14338,8032 14335,8060 14335,8094 14335,8144 14342,8182 14355,8207 14369,8231 14385,8244 14405,8244 14428,8244 14448,8230 14462,8202 L 14497,8243 C 14485,8263 14472,8277 14456,8286 14441,8295 14422,8299 14401,8300 Z"/>
    </g>
   </g>
   <g class="com.sun.star.drawing.ClosedBezierShape">
    <g id="id44">
     <rect class="BoundingBox" stroke="none" fill="none" x="14525" y="7990" width="229" height="310"/>
     <path fill="rgb(0,0,0)" stroke="none" d="M 14639,8299 C 14606,8298 14579,8286 14558,8260 14537,8235 14526,8197 14526,8146 14526,8095 14537,8057 14558,8030 14579,8004 14606,7991 14639,7991 14672,7991 14699,8004 14720,8030 14741,8057 14752,8095 14752,8146 14752,8197 14741,8235 14720,8260 14699,8286 14672,8298 14639,8299 Z M 14639,8245 C 14655,8245 14668,8237 14677,8220 14686,8202 14691,8178 14691,8146 14691,8112 14686,8087 14677,8070 14668,8053 14655,8045 14639,8045 14623,8045 14611,8053 14601,8070 14592,8087 14587,8112 14587,8146 14587,8178 14592,8202 14601,8220 14611,8237 14623,8245 14639,8245 Z"/>
    </g>
   </g>
   <g class="com.sun.star.drawing.ClosedBezierShape">
    <g id="id45">
     <rect class="BoundingBox" stroke="none" fill="none" x="14793" y="7990" width="205" height="304"/>
     <path fill="rgb(0,0,0)" stroke="none" d="M 14793,8293 L 14793,7997 14854,7997 14854,8039 C 14862,8024 14872,8013 14883,8004 14894,7995 14907,7991 14922,7991 14936,7991 14948,7994 14959,8001 14971,8008 14980,8021 14986,8038 14993,8055 14997,8079 14997,8110 L 14997,8293 14936,8293 14936,8111 C 14936,8087 14933,8069 14927,8059 14922,8049 14914,8044 14904,8044 14892,8044 14880,8050 14870,8063 14859,8076 14854,8094 14854,8117 L 14854,8293 14793,8293 Z"/>
    </g>
   </g>
   <g class="com.sun.star.drawing.ClosedBezierShape">
    <g id="id46">
     <rect class="BoundingBox" stroke="none" fill="none" x="15042" y="7990" width="206" height="311"/>
     <path fill="rgb(0,0,0)" stroke="none" d="M 15148,8300 C 15103,8299 15068,8287 15042,8262 L 15067,8210 15070,8204 15074,8207 C 15075,8210 15077,8213 15078,8216 15080,8220 15083,8224 15088,8228 15096,8234 15104,8239 15114,8242 15123,8246 15134,8247 15147,8247 15161,8247 15171,8244 15179,8237 15187,8230 15191,8221 15191,8211 15191,8201 15187,8193 15179,8187 15171,8180 15158,8173 15139,8165 15114,8156 15094,8144 15078,8130 15063,8117 15055,8098 15055,8074 15055,8050 15063,8031 15080,8015 15097,7999 15120,7991 15150,7991 15191,7991 15223,8004 15245,8032 L 15217,8076 15213,8081 15209,8078 C 15208,8075 15207,8071 15206,8068 15205,8065 15202,8061 15197,8056 15190,8051 15183,8048 15176,8045 15168,8043 15160,8042 15152,8042 15140,8042 15130,8045 15123,8050 15115,8055 15111,8062 15111,8072 15111,8081 15115,8090 15124,8096 15133,8103 15147,8110 15168,8117 15195,8128 15215,8139 15228,8153 15240,8166 15247,8184 15247,8207 15247,8235 15238,8257 15220,8274 15203,8291 15179,8299 15148,8300 Z"/>
    </g>
   </g>
   <g class="com.sun.star.drawing.ClosedBezierShape">
    <g id="id47">
     <rect class="BoundingBox" stroke="none" fill="none" x="15299" y="7997" width="207" height="304"/>
     <path fill="rgb(0,0,0)" stroke="none" d="M 15381,8300 C 15364,8299 15350,8295 15338,8287 15326,8279 15316,8266 15310,8247 15303,8228 15299,8202 15299,8168 L 15300,7998 15360,7998 15360,8171 C 15360,8201 15364,8221 15370,8231 15376,8241 15384,8246 15395,8246 15408,8246 15419,8239 15427,8226 15435,8212 15439,8192 15439,8166 L 15439,7998 15499,7998 15499,8246 C 15499,8255 15500,8263 15500,8270 15500,8278 15502,8285 15505,8293 L 15449,8293 C 15447,8287 15445,8281 15444,8276 15444,8270 15444,8264 15444,8258 15437,8271 15429,8281 15417,8288 15406,8296 15394,8299 15381,8300 Z"/>
    </g>
   </g>
   <g class="com.sun.star.drawing.ClosedBezierShape">
    <g id="id48">
     <rect class="BoundingBox" stroke="none" fill="none" x="15543" y="7990" width="229" height="304"/>
     <path fill="rgb(0,0,0)" stroke="none" d="M 15543,8293 L 15543,7997 15593,7997 15593,8022 C 15603,8001 15617,7991 15633,7991 15642,7991 15650,7994 15657,8000 15664,8006 15669,8016 15672,8029 15682,8003 15699,7991 15722,7991 15738,7991 15751,7998 15759,8012 15767,8026 15771,8047 15771,8073 L 15771,8293 15719,8293 15719,8086 C 15719,8067 15717,8054 15715,8048 15713,8042 15710,8039 15706,8039 15699,8039 15693,8044 15688,8055 15683,8066 15681,8081 15681,8099 L 15681,8293 15633,8293 15633,8089 C 15633,8069 15632,8055 15630,8048 15627,8041 15623,8038 15618,8038 15612,8038 15606,8043 15602,8053 15598,8062 15595,8077 15595,8096 L 15595,8293 15543,8293 Z"/>
    </g>
   </g>
   <g class="com.sun.star.drawing.ClosedBezierShape">
    <g id="id49">
     <rect class="BoundingBox" stroke="none" fill="none" x="15801" y="7990" width="214" height="311"/>
     <path fill="rgb(0,0,0)" stroke="none" d="M 15919,8300 C 15884,8299 15856,8287 15834,8262 15812,8237 15801,8199 15801,8148 15801,8095 15812,8055 15832,8029 15853,8003 15880,7991 15913,7991 15942,7991 15967,8002 15986,8025 16004,8049 16014,8086 16014,8137 16014,8142 16014,8147 16014,8151 16014,8156 16014,8160 16013,8164 L 15861,8164 C 15862,8195 15868,8216 15880,8228 15892,8240 15906,8246 15922,8246 15944,8246 15962,8237 15976,8219 L 16007,8254 C 15986,8284 15956,8299 15919,8300 Z M 15861,8113 L 15955,8113 C 15955,8066 15940,8043 15910,8043 15898,8043 15887,8049 15878,8059 15870,8070 15864,8088 15861,8113 Z"/>
    </g>
   </g>
   <g class="com.sun.star.drawing.ClosedBezierShape">
    <g id="id50">
     <rect class="BoundingBox" stroke="none" fill="none" x="16306" y="7868" width="221" height="433"/>
     <path fill="rgb(0,0,0)" stroke="none" d="M 16402,8300 C 16384,8299 16369,8294 16354,8284 16340,8274 16328,8258 16320,8235 16311,8212 16307,8182 16307,8144 16307,8107 16311,8077 16319,8055 16328,8032 16339,8016 16354,8005 16368,7995 16384,7990 16402,7990 16416,7990 16427,7993 16437,7999 16447,8005 16455,8015 16460,8028 L 16460,7868 16526,7868 16526,7874 C 16523,7876 16521,7879 16521,7882 16520,7885 16520,7890 16521,7897 L 16520,8251 C 16520,8258 16520,8265 16521,8272 16521,8278 16522,8285 16525,8293 L 16466,8293 C 16463,8287 16462,8281 16461,8277 16461,8273 16460,8267 16460,8260 16454,8273 16445,8283 16435,8289 16425,8296 16414,8299 16402,8300 Z M 16413,8245 C 16444,8245 16460,8212 16460,8145 16460,8110 16456,8084 16448,8067 16441,8051 16429,8043 16413,8043 16398,8043 16386,8050 16378,8066 16370,8082 16366,8106 16366,8140 16366,8177 16371,8204 16380,8220 16389,8237 16400,8245 16413,8245 Z"/>
    </g>
   </g>
   <g class="com.sun.star.drawing.ClosedBezierShape">
    <g id="id51">
     <rect class="BoundingBox" stroke="none" fill="none" x="16561" y="7990" width="214" height="311"/>
     <path fill="rgb(0,0,0)" stroke="none" d="M 16644,8300 C 16618,8299 16598,8292 16583,8276 16569,8260 16562,8240 16562,8215 16562,8181 16573,8155 16596,8136 16619,8117 16651,8108 16692,8108 16698,8108 16705,8108 16714,8109 16711,8082 16706,8064 16698,8056 16690,8047 16678,8043 16663,8043 16652,8043 16642,8045 16633,8049 16624,8053 16615,8060 16606,8070 L 16574,8031 C 16599,8004 16631,7991 16668,7991 16689,7991 16708,7994 16723,8002 16739,8010 16752,8023 16760,8043 16769,8064 16773,8092 16773,8129 L 16773,8293 16712,8293 16712,8261 C 16704,8276 16694,8286 16682,8292 16671,8297 16658,8299 16644,8300 Z M 16622,8207 C 16622,8220 16625,8231 16632,8237 16639,8244 16647,8247 16657,8247 16675,8247 16688,8240 16698,8226 16707,8212 16712,8189 16714,8158 16710,8158 16706,8158 16702,8158 16698,8158 16695,8158 16692,8158 16667,8158 16649,8162 16638,8170 16628,8179 16622,8191 16622,8207 Z"/>
    </g>
   </g>
   <g class="com.sun.star.drawing.ClosedBezierShape">
    <g id="id52">
     <rect class="BoundingBox" stroke="none" fill="none" x="16825" y="7919" width="206" height="382"/>
     <path fill="rgb(0,0,0)" stroke="none" d="M 16951,8300 C 16932,8299 16916,8295 16904,8285 16892,8276 16883,8259 16877,8236 16872,8212 16870,8180 16871,8138 L 16874,8055 16826,8055 16827,8002 16875,8002 16877,7928 16941,7920 16947,7920 16948,7925 C 16946,7928 16944,7931 16942,7934 16941,7937 16940,7942 16940,7949 L 16936,8002 17010,8002 17009,8055 16936,8055 16933,8138 C 16932,8166 16933,8188 16935,8204 16937,8219 16941,8230 16946,8236 16952,8243 16958,8246 16966,8246 16977,8246 16987,8243 16995,8239 17004,8234 17012,8228 17018,8222 L 17030,8271 C 17018,8281 17006,8288 16993,8293 16979,8297 16965,8299 16951,8300 Z"/>
    </g>
   </g>
   <g class="com.sun.star.drawing.ClosedBezierShape">
    <g id="id53">
     <rect class="BoundingBox" stroke="none" fill="none" x="17069" y="7990" width="214" height="311"/>
     <path fill="rgb(0,0,0)" stroke="none" d="M 17152,8300 C 17126,8299 17106,8292 17091,8276 17077,8260 17070,8240 17070,8215 17070,8181 17081,8155 17104,8136 17127,8117 17159,8108 17200,8108 17206,8108 17213,8108 17222,8109 17219,8082 17214,8064 17206,8056 17198,8047 17186,8043 17171,8043 17160,8043 17150,8045 17141,8049 17132,8053 17123,8060 17114,8070 L 17082,8031 C 17107,8004 17139,7991 17176,7991 17197,7991 17216,7994 17231,8002 17247,8010 17260,8023 17268,8043 17277,8064 17281,8092 17281,8129 L 17281,8293 17220,8293 17220,8261 C 17212,8276 17202,8286 17190,8292 17179,8297 17166,8299 17152,8300 Z M 17130,8207 C 17130,8220 17133,8231 17140,8237 17147,8244 17155,8247 17165,8247 17183,8247 17196,8240 17206,8226 17215,8212 17220,8189 17222,8158 17218,8158 17214,8158 17210,8158 17206,8158 17203,8158 17200,8158 17175,8158 17157,8162 17146,8170 17136,8179 17130,8191 17130,8207 Z"/>
    </g>
   </g>
   <g class="com.sun.star.drawing.ClosedBezierShape">
    <g id="id54">
     <rect class="BoundingBox" stroke="none" fill="none" x="13765" y="8617" width="226" height="277"/>
     <path fill="rgb(0,0,0)" stroke="none" d="M 13829,8892 C 13813,8878 13797,8864 13780,8850 13801,8822 13822,8793 13843,8764 13818,8755 13792,8747 13766,8738 13773,8717 13780,8696 13787,8675 13810,8690 13833,8704 13855,8718 13852,8685 13848,8651 13845,8618 13868,8618 13891,8618 13914,8618 13909,8651 13905,8685 13901,8718 13923,8705 13946,8692 13968,8679 13975,8699 13982,8719 13989,8739 13963,8747 13936,8755 13910,8763 13931,8792 13951,8821 13972,8850 13955,8864 13939,8878 13923,8892 13907,8861 13892,8830 13877,8799 13861,8830 13845,8861 13829,8892 Z"/>
    </g>
   </g>
   <g class="com.sun.star.drawing.ClosedBezierShape">
    <g id="id55">
     <rect class="BoundingBox" stroke="none" fill="none" x="14273" y="8561" width="230" height="409"/>
     <path fill="rgb(0,0,0)" stroke="none" d="M 14401,8969 C 14378,8968 14356,8962 14337,8949 14318,8935 14303,8914 14291,8884 14280,8854 14274,8815 14274,8766 14274,8725 14278,8692 14286,8665 14293,8639 14304,8618 14317,8603 14330,8588 14344,8577 14359,8571 14374,8565 14389,8562 14404,8562 14428,8562 14448,8567 14464,8579 14480,8591 14493,8606 14501,8626 L 14468,8666 14464,8671 14461,8667 C 14461,8664 14460,8660 14460,8656 14459,8652 14458,8647 14454,8641 14447,8632 14440,8626 14432,8622 14424,8619 14416,8617 14407,8617 14395,8617 14383,8622 14372,8632 14361,8642 14352,8658 14345,8679 14338,8701 14335,8729 14335,8763 14335,8813 14342,8851 14355,8876 14369,8900 14385,8913 14405,8913 14428,8913 14448,8899 14462,8871 L 14497,8912 C 14485,8932 14472,8946 14456,8955 14441,8964 14422,8968 14401,8969 Z"/>
    </g>
   </g>
   <g class="com.sun.star.drawing.ClosedBezierShape">
    <g id="id56">
     <rect class="BoundingBox" stroke="none" fill="none" x="14525" y="8659" width="229" height="310"/>
     <path fill="rgb(0,0,0)" stroke="none" d="M 14639,8968 C 14606,8967 14579,8955 14558,8929 14537,8904 14526,8866 14526,8815 14526,8764 14537,8726 14558,8699 14579,8673 14606,8660 14639,8660 14672,8660 14699,8673 14720,8699 14741,8726 14752,8764 14752,8815 14752,8866 14741,8904 14720,8929 14699,8955 14672,8967 14639,8968 Z M 14639,8914 C 14655,8914 14668,8906 14677,8889 14686,8871 14691,8847 14691,8815 14691,8781 14686,8756 14677,8739 14668,8722 14655,8714 14639,8714 14623,8714 14611,8722 14601,8739 14592,8756 14587,8781 14587,8815 14587,8847 14592,8871 14601,8889 14611,8906 14623,8914 14639,8914 Z"/>
    </g>
   </g>
   <g class="com.sun.star.drawing.ClosedBezierShape">
    <g id="id57">
     <rect class="BoundingBox" stroke="none" fill="none" x="14793" y="8659" width="205" height="304"/>
     <path fill="rgb(0,0,0)" stroke="none" d="M 14793,8962 L 14793,8666 14854,8666 14854,8708 C 14862,8693 14872,8682 14883,8673 14894,8664 14907,8660 14922,8660 14936,8660 14948,8663 14959,8670 14971,8677 14980,8690 14986,8707 14993,8724 14997,8748 14997,8779 L 14997,8962 14936,8962 14936,8780 C 14936,8756 14933,8738 14927,8728 14922,8718 14914,8713 14904,8713 14892,8713 14880,8719 14870,8732 14859,8745 14854,8763 14854,8786 L 14854,8962 14793,8962 Z"/>
    </g>
   </g>
   <g class="com.sun.star.drawing.ClosedBezierShape">
    <g id="id58">
     <rect class="BoundingBox" stroke="none" fill="none" x="15035" y="8666" width="222" height="297"/>
     <path fill="rgb(0,0,0)" stroke="none" d="M 15121,8961 L 15036,8666 15097,8666 15151,8871 15177,8786 C 15191,8742 15198,8702 15200,8666 L 15256,8666 C 15254,8685 15250,8705 15245,8726 15240,8748 15234,8770 15227,8793 L 15172,8961 15121,8961 Z"/>
    </g>
   </g>
   <g class="com.sun.star.drawing.ClosedBezierShape">
    <g id="id59">
     <rect class="BoundingBox" stroke="none" fill="none" x="15293" y="8659" width="214" height="311"/>
     <path fill="rgb(0,0,0)" stroke="none" d="M 15411,8969 C 15376,8968 15348,8956 15326,8931 15304,8906 15293,8868 15293,8817 15293,8764 15304,8724 15324,8698 15345,8672 15372,8660 15405,8660 15434,8660 15459,8671 15478,8694 15496,8718 15506,8755 15506,8806 15506,8811 15506,8816 15506,8820 15506,8825 15506,8829 15505,8833 L 15353,8833 C 15354,8864 15360,8885 15372,8897 15384,8909 15398,8915 15414,8915 15436,8915 15454,8906 15468,8888 L 15499,8923 C 15478,8953 15448,8968 15411,8969 Z M 15353,8782 L 15447,8782 C 15447,8735 15432,8712 15402,8712 15390,8712 15379,8718 15370,8728 15362,8739 15356,8757 15353,8782 Z"/>
    </g>
   </g>
   <g class="com.sun.star.drawing.ClosedBezierShape">
    <g id="id60">
     <rect class="BoundingBox" stroke="none" fill="none" x="15568" y="8659" width="201" height="305"/>
     <path fill="rgb(0,0,0)" stroke="none" d="M 15568,8667 L 15630,8667 15630,8711 C 15637,8695 15646,8682 15659,8673 15673,8664 15686,8660 15701,8660 15728,8660 15750,8671 15767,8695 L 15742,8746 15740,8752 15735,8750 C 15734,8746 15733,8743 15732,8739 15730,8735 15727,8731 15722,8726 15713,8719 15702,8715 15692,8715 15682,8715 15672,8717 15662,8723 15652,8728 15644,8738 15638,8751 15633,8765 15630,8783 15630,8806 L 15630,8963 15568,8963 15568,8667 Z"/>
    </g>
   </g>
   <g class="com.sun.star.drawing.ClosedBezierShape">
    <g id="id61">
     <rect class="BoundingBox" stroke="none" fill="none" x="15809" y="8588" width="206" height="382"/>
     <path fill="rgb(0,0,0)" stroke="none" d="M 15935,8969 C 15916,8968 15900,8964 15888,8954 15876,8945 15867,8928 15861,8905 15856,8881 15854,8849 15855,8807 L 15858,8725 15810,8725 15811,8671 15859,8671 15861,8597 15925,8589 15931,8589 15932,8594 C 15930,8597 15928,8600 15926,8603 15925,8606 15924,8611 15924,8618 L 15920,8671 15994,8671 15993,8725 15920,8725 15917,8808 C 15916,8835 15917,8857 15919,8873 15921,8888 15925,8899 15930,8905 15936,8912 15942,8915 15950,8915 15961,8915 15971,8912 15979,8908 15988,8903 15996,8897 16002,8891 L 16014,8940 C 16002,8950 15990,8957 15977,8962 15963,8966 15949,8968 15935,8969 Z"/>
    </g>
   </g>
   <g class="com.sun.star.drawing.ClosedBezierShape">
    <g id="id62">
     <rect class="BoundingBox" stroke="none" fill="none" x="13765" y="9286" width="226" height="277"/>
     <path fill="rgb(0,0,0)" stroke="none" d="M 13829,9561 C 13813,9547 13797,9533 13780,9519 13801,9491 13822,9462 13843,9433 13818,9424 13792,9416 13766,9407 13773,9386 13780,9365 13787,9344 13810,9359 13833,9373 13855,9387 13852,9354 13848,9320 13845,9287 13868,9287 13891,9287 13914,9287 13909,9320 13905,9354 13901,9387 13923,9374 13946,9361 13968,9348 13975,9368 13982,9388 13989,9408 13963,9416 13936,9424 13910,9432 13931,9461 13951,9490 13972,9519 13955,9533 13939,9547 13923,9561 13907,9530 13892,9499 13877,9468 13861,9499 13845,9530 13829,9561 Z"/>
    </g>
   </g>
   <g class="com.sun.star.drawing.ClosedBezierShape">
    <g id="id63">
     <rect class="BoundingBox" stroke="none" fill="none" x="14273" y="9230" width="230" height="409"/>
     <path fill="rgb(0,0,0)" stroke="none" d="M 14401,9638 C 14378,9637 14356,9631 14337,9618 14318,9604 14303,9583 14291,9553 14280,9523 14274,9484 14274,9435 14274,9394 14278,9361 14286,9334 14293,9308 14304,9287 14317,9272 14330,9257 14344,9246 14359,9240 14374,9234 14389,9231 14404,9231 14428,9231 14448,9236 14464,9248 14480,9260 14493,9275 14501,9295 L 14468,9335 14464,9340 14461,9336 C 14461,9333 14460,9329 14460,9325 14459,9321 14458,9316 14454,9310 14447,9301 14440,9295 14432,9291 14424,9288 14416,9286 14407,9286 14395,9286 14383,9291 14372,9301 14361,9311 14352,9327 14345,9348 14338,9370 14335,9398 14335,9432 14335,9482 14342,9520 14355,9545 14369,9569 14385,9582 14405,9582 14428,9582 14448,9568 14462,9540 L 14497,9581 C 14485,9601 14472,9615 14456,9624 14441,9633 14422,9637 14401,9638 Z"/>
    </g>
   </g>
   <g class="com.sun.star.drawing.ClosedBezierShape">
    <g id="id64">
     <rect class="BoundingBox" stroke="none" fill="none" x="14525" y="9328" width="229" height="310"/>
     <path fill="rgb(0,0,0)" stroke="none" d="M 14639,9637 C 14606,9636 14579,9624 14558,9598 14537,9573 14526,9535 14526,9484 14526,9433 14537,9395 14558,9368 14579,9342 14606,9329 14639,9329 14672,9329 14699,9342 14720,9368 14741,9395 14752,9433 14752,9484 14752,9535 14741,9573 14720,9598 14699,9624 14672,9636 14639,9637 Z M 14639,9583 C 14655,9583 14668,9575 14677,9558 14686,9540 14691,9516 14691,9484 14691,9450 14686,9425 14677,9408 14668,9391 14655,9383 14639,9383 14623,9383 14611,9391 14601,9408 14592,9425 14587,9450 14587,9484 14587,9516 14592,9540 14601,9558 14611,9575 14623,9583 14639,9583 Z"/>
    </g>
   </g>
   <g class="com.sun.star.drawing.ClosedBezierShape">
    <g id="id65">
     <rect class="BoundingBox" stroke="none" fill="none" x="14793" y="9328" width="205" height="304"/>
     <path fill="rgb(0,0,0)" stroke="none" d="M 14793,9631 L 14793,9335 14854,9335 14854,9377 C 14862,9362 14872,9351 14883,9342 14894,9333 14907,9329 14922,9329 14936,9329 14948,9332 14959,9339 14971,9346 14980,9359 14986,9376 14993,9393 14997,9417 14997,9448 L 14997,9631 14936,9631 14936,9449 C 14936,9425 14933,9407 14927,9397 14922,9387 14914,9382 14904,9382 14892,9382 14880,9388 14870,9401 14859,9414 14854,9432 14854,9455 L 14854,9631 14793,9631 Z"/>
    </g>
   </g>
   <g class="com.sun.star.drawing.ClosedBezierShape">
    <g id="id66">
     <rect class="BoundingBox" stroke="none" fill="none" x="15037" y="9202" width="231" height="430"/>
     <path fill="rgb(0,0,0)" stroke="none" d="M 15088,9387 L 15038,9387 15038,9335 15088,9335 15088,9317 C 15088,9291 15093,9269 15102,9252 15111,9235 15123,9222 15138,9214 15153,9206 15169,9202 15186,9202 15202,9202 15217,9205 15231,9212 15246,9218 15257,9228 15266,9240 L 15245,9286 15243,9292 15238,9289 C 15237,9286 15235,9283 15234,9279 15233,9276 15230,9271 15225,9266 15215,9259 15204,9256 15191,9256 15178,9256 15168,9260 15160,9270 15152,9280 15148,9296 15148,9317 L 15148,9335 15218,9335 15218,9387 15148,9387 15148,9630 15088,9630 15088,9387 Z"/>
    </g>
   </g>
   <g class="com.sun.star.drawing.ClosedBezierShape">
    <g id="id67">
     <rect class="BoundingBox" stroke="none" fill="none" x="15314" y="9204" width="175" height="428"/>
     <path fill="rgb(0,0,0)" stroke="none" d="M 15315,9631 L 15315,9577 15373,9577 15373,9388 15318,9388 15318,9336 15434,9336 15434,9577 15487,9577 15487,9631 15315,9631 Z M 15401,9282 C 15390,9282 15381,9278 15373,9270 15365,9262 15362,9253 15362,9243 15362,9232 15365,9223 15373,9216 15381,9208 15390,9204 15401,9204 15412,9204 15421,9208 15429,9216 15436,9224 15440,9233 15440,9243 15440,9253 15436,9262 15429,9270 15421,9278 15412,9282 15401,9282 Z"/>
    </g>
   </g>
   <g class="com.sun.star.drawing.ClosedBezierShape">
    <g id="id68">
     <rect class="BoundingBox" stroke="none" fill="none" x="15541" y="9327" width="234" height="417"/>
     <path fill="rgb(0,0,0)" stroke="none" d="M 15645,9532 C 15634,9532 15624,9530 15615,9526 15612,9530 15610,9533 15608,9536 15606,9539 15605,9543 15605,9547 15605,9554 15610,9560 15622,9564 15633,9568 15652,9570 15680,9570 15711,9570 15732,9577 15744,9591 15756,9605 15762,9624 15762,9648 15762,9665 15758,9680 15750,9694 15742,9709 15730,9720 15713,9729 15697,9738 15676,9742 15651,9743 15616,9742 15589,9736 15570,9723 15551,9709 15542,9690 15542,9665 15542,9652 15545,9640 15551,9629 15558,9619 15566,9611 15576,9604 15570,9599 15565,9593 15562,9587 15558,9580 15557,9572 15557,9562 15557,9552 15559,9542 15565,9533 15570,9523 15576,9515 15584,9507 15566,9489 15557,9464 15557,9430 15557,9399 15565,9374 15581,9355 15598,9337 15619,9327 15645,9327 15670,9327 15690,9335 15706,9352 15715,9344 15725,9338 15735,9334 15746,9330 15757,9328 15769,9328 L 15774,9377 C 15757,9374 15742,9377 15728,9386 15733,9400 15735,9414 15735,9430 15735,9462 15726,9487 15709,9505 15692,9523 15671,9532 15645,9532 Z M 15645,9483 C 15657,9483 15666,9478 15672,9469 15678,9460 15681,9447 15681,9430 15681,9414 15678,9401 15671,9392 15665,9383 15656,9379 15645,9379 15635,9379 15627,9383 15620,9392 15613,9401 15610,9414 15610,9430 15610,9447 15613,9460 15620,9469 15626,9478 15635,9483 15645,9483 Z M 15592,9656 C 15592,9669 15598,9677 15609,9683 15621,9688 15636,9691 15654,9691 15672,9691 15686,9688 15696,9681 15705,9674 15710,9665 15710,9654 15710,9643 15707,9635 15700,9631 15693,9626 15681,9624 15665,9624 15655,9624 15645,9624 15636,9623 15627,9622 15618,9621 15609,9619 15604,9624 15600,9630 15597,9635 15594,9641 15592,9648 15592,9656 Z"/>
    </g>
   </g>
   <g class="com.sun.star.drawing.ClosedBezierShape">
    <g id="id69">
     <rect class="BoundingBox" stroke="none" fill="none" x="15807" y="9335" width="207" height="304"/>
     <path fill="rgb(0,0,0)" stroke="none" d="M 15889,9638 C 15872,9637 15858,9633 15846,9625 15834,9617 15824,9604 15818,9585 15811,9566 15807,9540 15807,9506 L 15808,9336 15868,9336 15868,9509 C 15868,9539 15872,9559 15878,9569 15884,9579 15892,9584 15903,9584 15916,9584 15927,9577 15935,9564 15943,9550 15947,9530 15947,9504 L 15947,9336 16007,9336 16007,9584 C 16007,9593 16008,9601 16008,9608 16008,9616 16010,9623 16012,9631 L 15957,9631 C 15955,9625 15953,9619 15952,9614 15952,9608 15952,9602 15952,9596 15945,9609 15937,9619 15925,9626 15914,9634 15902,9637 15889,9638 Z"/>
    </g>
   </g>
   <g class="com.sun.star.drawing.ClosedBezierShape">
    <g id="id70">
     <rect class="BoundingBox" stroke="none" fill="none" x="16076" y="9328" width="201" height="305"/>
     <path fill="rgb(0,0,0)" stroke="none" d="M 16076,9336 L 16138,9336 16138,9380 C 16145,9364 16154,9351 16167,9342 16181,9333 16194,9329 16209,9329 16236,9329 16258,9340 16275,9364 L 16250,9415 16248,9421 16243,9419 C 16242,9415 16241,9412 16240,9408 16238,9404 16235,9400 16230,9395 16221,9388 16210,9384 16200,9384 16190,9384 16180,9386 16170,9392 16160,9397 16152,9407 16146,9420 16141,9434 16138,9452 16138,9475 L 16138,9632 16076,9632 16076,9336 Z"/>
    </g>
   </g>
   <g class="com.sun.star.drawing.ClosedBezierShape">
    <g id="id71">
     <rect class="BoundingBox" stroke="none" fill="none" x="16309" y="9328" width="214" height="311"/>
     <path fill="rgb(0,0,0)" stroke="none" d="M 16427,9638 C 16392,9637 16364,9625 16342,9600 16320,9575 16309,9537 16309,9486 16309,9433 16320,9393 16340,9367 16361,9341 16388,9329 16421,9329 16450,9329 16475,9340 16494,9363 16512,9387 16522,9424 16522,9475 16522,9480 16522,9485 16522,9489 16522,9494 16522,9498 16521,9502 L 16369,9502 C 16370,9533 16376,9554 16388,9566 16400,9578 16414,9584 16430,9584 16452,9584 16470,9575 16484,9557 L 16515,9592 C 16494,9622 16464,9637 16427,9638 Z M 16369,9451 L 16463,9451 C 16463,9404 16448,9381 16418,9381 16406,9381 16395,9387 16386,9397 16378,9408 16372,9426 16369,9451 Z"/>
    </g>
   </g>
  </g>
 </g>
</svg>