<svg id="artwork" xmlns="http://www.w3.org/2000/svg" viewBox="0 0 1024 1024"><defs><style>.cls-1{fill:none;}.cls-2{fill:#fff;}.cls-3{fill:#ed1c24;}.cls-4{fill:#ffd900;}.cls-5{fill:#d4eafc;}.cls-6{fill:#cc1b28;}.cls-7{fill:#e5c10e;}.cls-8{fill:#5d5e61;}.cls-9{fill:#0072d8;}.cls-10{fill:#046dba;}</style></defs><path class="cls-1" d="M646.47,576.11c-.21-1.29-.4-2.62-.57-4C646.07,573.49,646.26,574.82,646.47,576.11Z"/><path class="cls-1" d="M567,479.69c77,.36,74.88,50.33,78.21,86.16C641.89,530,644,480.05,567,479.69Z"/><path class="cls-1" d="M604.33,299.18l.61.08Z"/><path class="cls-2" d="M697,569.11c0,.29,0,.06-.13-.64-11.88,5.25-25.83,9.33-35.77,11.9-2.2.57-4.22,1.07-6,1.49l-2.41.56-1,.24-1.72.39c-1.22.27-1.9.4-1.9.4a67.59,67.59,0,0,1-1.57-7.34c-.21-1.29-.4-2.62-.57-4-.26-2-.48-4.13-.68-6.28C641.89,530,644,480.05,567,479.69q-6.91,0-14.72.49-5.2.35-10.83,1a262.58,262.58,0,0,0-30.66,5.09Q505.19,487.52,500,489t-10,3.15C402.09,522.66,411.32,596,411.32,596h0c-15.74,0-47.71-17.5-75.54-34.84q-.11,32.28-1.07,65.91c-1.21,42-3.49,86-6.76,131.14a374.51,374.51,0,0,0,98.29,54.14c90.2,33,105.42,84.39,105.42,84.39s130.55-90.46,184.52-181C711.14,669.7,704.84,620.08,697,569.11Z"/><path class="cls-2" d="M696.87,568.45h0l0,0h0Z"/><path class="cls-3" d="M329.74,392c45.46-46.25,122.3-99.26,234-96.22a358.16,358.16,0,0,1,40.56,3.45l.61.08q16.47,2.36,33.82,6.36c0-.1,0-.1,0,0-84.38-223.08-309.18-283-411-298.95,15.4,31.84,38.82,83.08,46.84,105.06C302.49,188.25,320.92,282,329.74,392Z"/><path class="cls-3" d="M638.76,305.62h0Z"/><path class="cls-4" d="M604.33,299.18a358.16,358.16,0,0,0-40.56-3.45c-111.73-3-188.57,50-234,96.22q6.36,79.1,6,169.24c27.83,17.34,59.8,34.84,75.54,34.84,0,0-9.22-73.37,78.71-103.87q4.79-1.67,10-3.15t10.79-2.78a262.58,262.58,0,0,1,30.66-5.09q5.63-.61,10.83-1,7.8-.53,14.72-.49c77,.36,74.88,50.33,78.21,86.16.2,2.15.42,4.25.68,6.28.17,1.36.36,2.69.57,4a67.59,67.59,0,0,0,1.57,7.34s.68-.13,1.9-.4l1.72-.39,1-.24,2.41-.56c1.74-.42,3.76-.92,6-1.49,9.94-2.57,23.89-6.65,35.77-11.9-1.93-11-23-136.26-41.88-211.16-4.86-19.29-15.55-49.72-16.2-51.69q-17.35-4-33.82-6.36Z"/><path class="cls-4" d="M696.87,568.45h0c0,.22.07.44.1.66C697,569,696.93,568.78,696.87,568.45Z"/><path class="cls-4" d="M638.77,305.62a.15.15,0,0,0,0,0s0,0,0,0Z"/><path class="cls-4" d="M510.8,486.23Q505.19,487.52,500,489,505.2,487.53,510.8,486.23Z"/><path class="cls-4" d="M500,489q-5.19,1.49-10,3.15Q494.82,490.5,500,489Z"/><path class="cls-4" d="M696.84,568.47h0c-11.88,5.25-25.83,9.33-35.77,11.9C671,577.8,685,573.72,696.84,568.47Z"/><path class="cls-4" d="M697,569.11c0-.22-.06-.44-.1-.66l0,0C697,569.17,697,569.4,697,569.11Z"/><path class="cls-4" d="M651.66,582.66l-1.72.39Z"/><path class="cls-4" d="M655.11,581.86l-2.41.56Z"/><path class="cls-4" d="M411.32,596h0S402.09,522.66,490,492.16C402.1,522.66,411.32,596,411.32,596Z"/><path class="cls-4" d="M552.29,480.18q7.8-.53,14.72-.49Q560.1,479.66,552.29,480.18Z"/><path class="cls-4" d="M604.94,299.26q16.47,2.36,33.82,6.36h0Q621.41,301.6,604.94,299.26Z"/><path class="cls-4" d="M638.76,305.62h0s0,0,0,0S638.73,305.52,638.76,305.62Z"/><path class="cls-4" d="M563.77,295.73a358.16,358.16,0,0,1,40.56,3.45A358.16,358.16,0,0,0,563.77,295.73Z"/><path class="cls-5" d="M335.78,561.19c-5.3-3.31-10.45-6.6-15.31-9.77-2.25-1.47-4.44-2.91-6.55-4.31-3.16-2.1-6.16-4.12-8.93-6v.3c.3,58-1.56,121.78-6.17,192A348.82,348.82,0,0,0,328,758.24c3.27-45.12,5.55-89.14,6.76-131.14Q335.69,593.44,335.78,561.19Z"/><path class="cls-6" d="M301.15,424.8A359,359,0,0,1,329.74,392c-8.82-109.91-27.25-203.7-55.19-280.26-8-22-31.44-73.22-46.84-105.06C196.05,1.69,176.26,1,176.26,1S279.69,84.43,301.15,424.8Z"/><path class="cls-7" d="M329.74,392a359,359,0,0,0-28.59,32.85c2.27,35.93,3.62,74.74,3.84,116.61v-.3c2.77,1.88,5.77,3.9,8.93,6,2.11,1.4,4.3,2.84,6.55,4.31,4.86,3.17,10,6.46,15.31,9.77Q336.1,471.1,329.74,392Z"/><path class="cls-8" d="M558.4,594.94a12.8,12.8,0,0,0-6.56-.81c-3.37.63-6.6,2-9.86,3.2-1.52.54-2.92,1.57-4.47,1.81q-10.89,1.71-21.84,3c-2.62.32-5.38,1-5.69,3.69a9.76,9.76,0,0,0,2,6.63c3.14,3.8,7.79,5.06,13,5.69,11.43-2.38,23.32-4.66,34.46-9.49a7.55,7.55,0,0,0,4.82-7.3C564.07,597.84,561.3,596,558.4,594.94Z"/><path class="cls-9" d="M716.17,715.8c-54,90.51-184.51,181-184.51,181s-15.22-51.44-105.42-84.39a374.28,374.28,0,0,1-98.32-54.16l0,0q-.82,11.32-1.72,22.72c-3.14,39.58-7.09,80.59-11.78,122.37,1.22,1.06,2.4,2.15,3.52,3.27,30.52,30.58,21.48,45,35,46.9,167.53,23.71,244.72,35.6,302,35.29,16.81-.09,39.32-36.42,46.73-51,7-13.7,30.13-36.38,30.13-36.38C729.07,854.59,724.25,789.72,716.17,715.8Z"/><circle class="cls-8" cx="435.38" cy="398.02" r="26.78"/><circle class="cls-2" cx="419.52" cy="388.81" r="7.75"/><circle class="cls-8" cx="593.35" cy="365.56" r="26.78"/><circle class="cls-2" cx="577.48" cy="356.34" r="7.75"/><path class="cls-7" d="M510.86,487.27A10.79,10.79,0,0,1,509,465.86a162.34,162.34,0,0,1,17.64-1.81c25.51-1.69,38.84-3.85,39.28-31.26.15-9.81-3.4-13.68-6.09-15.74-12.18-9.32-40.58-4-49.57-1.44a10.79,10.79,0,0,1-6-20.73,138.15,138.15,0,0,1,24.4-4.32c19.15-1.61,34,1.53,44.26,9.33,6.81,5.2,14.88,15.19,14.59,33.25-.78,48.56-36.08,50.9-59.44,52.44a147.47,147.47,0,0,0-15.25,1.52A10.54,10.54,0,0,1,510.86,487.27Z"/><path class="cls-9" d="M702.88,609.15c4.33,30.74,8.09,60.72,11.37,89.51,11.77-21.61,27.66-40.49,38.81-52.41C735.15,631.48,716.5,618.3,702.88,609.15Z"/><path class="cls-4" d="M845.4,984.47c-23.81-30.86-93.19-71.19-113.78-82.77-2.59,2.56-23.34,23.29-29.87,36.12a205.16,205.16,0,0,1-17.5,27.87c14.77,7.52,36.58,15.61,68.81,23.11C810.1,1002.06,834.75,993.9,845.4,984.47Z"/><path class="cls-7" d="M660.49,987.61c31.18,16.12,97.28,43.84,166.74,32.9,30.59-4.82,31.33-19,18.17-36-10.65,9.43-35.3,17.59-92.34,4.33-32.23-7.5-54-15.59-68.81-23.11C676.83,975.54,668.32,984.49,660.49,987.61Z"/><path class="cls-4" d="M272.61,956.17c26.65-6.59,47.26-20.32,60.55-31.5A124.74,124.74,0,0,0,318,906.6c-12.57-12.6-32.51-21-31.55-30h0c-16.06,18.3-45.74,51.63-61,65.62a111.8,111.8,0,0,0-19,22.34C218.86,968.23,230.34,966.62,272.61,956.17Z"/><path class="cls-7" d="M240.74,995.85c56.32-6.44,98.85-35.14,109.59-43-7.4-2.67-5.95-11.64-17.17-28.18-13.29,11.18-33.9,24.91-60.55,31.5-42.27,10.45-53.75,12.06-66.19,8.35C195.15,982.79,195.46,1001,240.74,995.85Z"/><path class="cls-4" d="M247.82,760.37c21.69-9.79,35.5-18.11,44.13-25a352.43,352.43,0,0,0-50.67-41.2c-21.93,25.7-44.76,55-60.74,82C196.2,777.19,218,773.82,247.82,760.37Z"/><path class="cls-7" d="M295.54,778.52q1.5-18.76,2.72-36.95c-2.13-2.16-4.22-4.22-6.31-6.24-8.63,6.93-22.44,15.25-44.13,25-29.78,13.45-51.62,16.82-67.28,15.78-1.48,2.5-2.92,5-4.28,7.45C143.82,842.38,257,795.7,295.54,778.52Z"/><path class="cls-4" d="M810.83,721.35q-1-4.59-2.56-9.76c-6-20.36-29.86-44.44-55.21-65.34-10,10.68-23.79,27-35,45.79C727.92,707.56,752.51,729.66,810.83,721.35Z"/><path class="cls-7" d="M718.94,742c81.83,25.25,100.45,17.55,91.89-20.65-58.32,8.31-82.91-13.79-92.78-29.31-1.3,2.17-2.58,4.38-3.8,6.62C715.94,713.44,717.51,727.93,718.94,742Z"/><path class="cls-10" d="M328,758.24a350.47,350.47,0,0,1-29.13-24.8q3.69-56.33,5.12-107.22c-9.41,9.43-35.32,35.87-62.66,67.91,13.91,9.16,34.23,24.42,57,47.44h0q-4.35,63.93-11.85,135c-.88,8.27,15.59,16,28,26.77,4.69-41.78,8.64-82.79,11.78-122.37q.9-11.41,1.72-22.72Z"/></svg>