<?xml version="1.0" encoding="UTF-8" standalone="no"?>
<svg
   version="1.2"
   width="322.51mm"
   height="85.41mm"
   viewBox="5250 4000 32251 8541"
   preserveAspectRatio="xMidYMid"
   fill-rule="evenodd"
   stroke-width="28.222"
   stroke-linejoin="round"
   xml:space="preserve"
   id="svg650"
   sodipodi:docname="overview.svg"
   inkscape:version="1.1 (c68e22c387, 2021-05-23)"
   xmlns:inkscape="http://www.inkscape.org/namespaces/inkscape"
   xmlns:sodipodi="http://sodipodi.sourceforge.net/DTD/sodipodi-0.dtd"
   xmlns="http://www.w3.org/2000/svg"
   xmlns:svg="http://www.w3.org/2000/svg"><sodipodi:namedview
   id="namedview652"
   pagecolor="#ffffff"
   bordercolor="#666666"
   borderopacity="1.0"
   inkscape:pageshadow="2"
   inkscape:pageopacity="0.0"
   inkscape:pagecheckerboard="0"
   inkscape:document-units="mm"
   showgrid="false"
   inkscape:zoom="2.962421"
   inkscape:cx="609.46773"
   inkscape:cy="161.35452"
   inkscape:window-width="3840"
   inkscape:window-height="2002"
   inkscape:window-x="0"
   inkscape:window-y="48"
   inkscape:window-maximized="1"
   inkscape:current-layer="svg650" />
 <defs
   id="defs78">
  <font
   id="EmbeddedFont_1"
   horiz-adv-x="2048">
   <font-face
   font-family="Inconsolata Condensed Bold embedded"
   units-per-em="2048"
   font-weight="bold"
   font-style="normal"
   ascent="1764"
   descent="388"
   id="font-face9" />
   <missing-glyph
   horiz-adv-x="2048"
   d="M 0,0 L 2047,0 2047,2047 0,2047 0,0 Z"
   id="missing-glyph11" />
   <glyph
   unicode="…"
   horiz-adv-x="812"
   d="M 682,-23 C 649,-23 622,-11 599,13 577,37 565,65 565,98 565,131 577,159 599,182 622,205 649,217 682,217 712,217 738,205 761,182 783,159 795,131 795,98 795,65 783,37 761,13 738,-11 712,-23 682,-23 Z M 399,-23 C 368,-23 341,-11 318,13 296,37 285,65 285,98 285,131 296,159 318,182 341,205 368,217 399,217 431,217 458,205 480,182 503,159 514,131 514,98 514,65 503,37 480,13 458,-11 431,-23 399,-23 Z M 121,-23 C 89,-23 62,-11 40,13 17,37 6,65 6,98 6,131 17,159 40,182 62,205 89,217 121,217 152,217 179,205 202,182 224,159 236,131 236,98 236,65 224,37 202,13 179,-11 152,-23 121,-23 Z"
   id="glyph13" />
   <glyph
   unicode="y"
   horiz-adv-x="741"
   d="M 211,-358 C 143,-358 83,-331 31,-278 L 94,-122 102,-104 117,-112 C 121,-122 125,-132 130,-142 135,-152 146,-164 164,-178 179,-185 195,-188 213,-188 246,-188 271,-170 290,-135 308,-99 328,-47 348,23 L 350,33 55,953 248,953 434,336 508,595 C 524,655 538,715 550,775 562,835 569,894 573,953 L 752,953 C 748,890 736,825 718,756 699,688 681,623 664,560 L 475,-92 C 446,-187 409,-256 364,-297 318,-338 267,-358 211,-358 Z"
   id="glyph15" />
   <glyph
   unicode="w"
   horiz-adv-x="812"
   d="M 152,-2 L 16,953 182,953 264,307 365,815 473,815 590,309 C 609,476 621,605 626,696 630,788 633,858 633,907 L 633,953 799,953 C 788,798 772,638 752,473 731,308 709,150 686,-2 L 514,-2 416,481 324,-2 152,-2 Z"
   id="glyph17" />
   <glyph
   unicode="v"
   horiz-adv-x="742"
   d="M 326,0 L 51,953 250,953 424,293 508,567 C 550,708 575,836 582,953 L 760,953 C 754,894 743,830 726,760 709,690 690,619 668,545 L 492,0 326,0 Z"
   id="glyph19" />
   <glyph
   unicode="u"
   horiz-adv-x="688"
   d="M 344,-23 C 291,-23 245,-10 206,16 167,42 137,86 115,147 93,208 82,293 82,401 L 84,952 279,952 279,391 C 279,295 289,231 309,199 330,167 356,151 389,151 433,151 468,173 494,216 520,259 532,323 532,409 L 532,952 727,952 727,149 C 727,122 728,96 729,71 730,47 735,23 743,0 L 563,0 C 556,17 552,35 550,54 548,72 547,92 547,112 526,70 498,37 463,13 427,-11 388,-23 344,-23 Z"
   id="glyph21" />
   <glyph
   unicode="t"
   horiz-adv-x="671"
   d="M 494,-23 C 431,-23 380,-8 341,23 302,54 274,107 256,183 238,259 231,364 236,500 L 244,766 90,766 92,938 250,938 256,1178 461,1202 481,1204 483,1188 C 477,1178 471,1168 466,1158 461,1148 458,1132 457,1110 L 446,938 684,938 682,766 444,766 434,497 C 431,407 434,337 441,286 449,236 461,201 478,181 495,161 517,151 543,151 577,151 608,159 636,174 664,189 689,206 711,227 L 748,69 C 711,38 671,15 628,0 585,-15 540,-23 494,-23 Z"
   id="glyph23" />
   <glyph
   unicode="s"
   horiz-adv-x="671"
   d="M 412,-23 C 268,-23 155,17 72,98 L 152,266 160,284 174,276 C 178,267 183,256 187,245 192,234 203,222 219,208 244,188 271,172 302,161 333,150 369,145 410,145 453,145 488,156 513,179 538,201 551,230 551,264 551,294 538,320 513,342 488,364 444,387 383,411 302,441 237,479 187,523 138,567 113,629 113,706 113,782 140,845 194,897 247,949 322,975 418,975 550,975 653,930 727,840 L 635,700 623,682 610,692 C 608,703 604,714 600,725 596,736 586,749 569,764 549,779 526,790 502,798 477,805 452,809 426,809 388,809 356,800 331,783 305,766 293,743 293,713 293,681 307,655 335,634 363,613 410,590 477,565 566,532 630,494 671,451 711,408 731,350 731,276 731,186 703,114 646,59 589,4 511,-23 412,-23 Z"
   id="glyph25" />
   <glyph
   unicode="r"
   horiz-adv-x="654"
   d="M 129,953 L 330,953 330,809 C 350,862 382,903 424,932 466,961 511,975 557,975 644,975 716,937 772,862 L 690,694 684,678 668,684 C 664,695 660,707 656,719 653,731 643,745 627,760 595,785 563,797 528,797 496,797 464,788 432,770 401,752 375,722 356,679 337,636 328,577 328,502 L 328,-2 129,-2 129,953 Z"
   id="glyph27" />
   <glyph
   unicode="p"
   horiz-adv-x="724"
   d="M 76,-342 L 74,955 268,955 268,824 C 315,925 385,975 479,975 534,975 584,959 629,927 674,895 710,843 737,770 765,698 778,600 778,476 778,355 765,259 738,186 712,113 676,60 630,26 584,-7 532,-24 475,-24 433,-24 394,-14 357,5 321,24 293,53 272,93 L 272,-342 76,-342 Z M 424,146 C 454,146 481,155 506,173 530,190 550,223 563,272 577,320 584,390 584,480 584,595 571,677 545,728 519,778 481,804 432,806 382,807 342,779 313,722 285,664 270,574 270,451 272,339 286,260 312,215 339,169 376,146 424,146 Z"
   id="glyph29" />
   <glyph
   unicode="o"
   horiz-adv-x="742"
   d="M 410,-18 C 304,-18 217,23 148,105 80,187 45,310 45,473 45,637 80,762 148,847 217,932 304,975 410,975 515,975 602,932 671,847 740,762 774,637 774,473 774,310 740,187 671,105 602,23 515,-18 410,-18 Z M 410,154 C 461,154 502,182 532,237 563,292 578,372 578,476 578,583 563,665 532,719 502,774 461,801 410,801 359,801 318,774 288,719 257,665 242,583 242,476 242,372 257,292 288,237 318,182 359,154 410,154 Z"
   id="glyph31" />
   <glyph
   unicode="n"
   horiz-adv-x="688"
   d="M 88,0 L 88,952 285,952 285,819 C 311,866 341,903 377,932 412,961 454,975 502,975 547,975 587,963 624,940 660,917 689,877 711,821 733,765 743,688 743,590 L 743,0 547,0 547,586 C 547,665 538,721 520,754 502,787 477,803 444,803 405,803 368,782 335,740 301,699 285,640 285,565 L 285,0 88,0 Z"
   id="glyph33" />
   <glyph
   unicode="m"
   horiz-adv-x="760"
   d="M 49,0 L 49,952 209,952 209,875 C 243,942 286,975 338,975 367,975 392,965 415,944 437,924 454,893 465,852 498,934 551,975 625,975 678,975 718,952 744,905 771,859 784,793 782,709 L 782,0 614,0 614,668 C 614,729 611,770 604,790 597,809 587,819 573,819 550,819 531,802 516,766 501,731 494,683 494,625 L 494,0 338,0 338,658 C 338,723 335,767 328,789 321,810 308,821 289,821 270,821 253,806 239,774 224,743 217,696 217,633 L 217,0 49,0 Z"
   id="glyph35" />
   <glyph
   unicode="l"
   horiz-adv-x="636"
   d="M 100,0 L 100,172 313,172 313,1196 111,1196 111,1370 510,1370 510,172 721,172 721,0 100,0 Z"
   id="glyph37" />
   <glyph
   unicode="k"
   horiz-adv-x="741"
   d="M 336,414 L 279,340 279,0 80,0 80,1370 295,1370 295,1352 C 287,1344 282,1335 281,1325 279,1316 279,1299 279,1276 L 279,580 565,961 C 582,957 601,953 625,950 648,948 668,946 684,946 L 766,946 469,553 803,0 588,-8 336,414 Z"
   id="glyph39" />
   <glyph
   unicode="i"
   horiz-adv-x="566"
   d="M 131,0 L 131,172 319,172 319,782 141,782 141,952 516,952 516,172 688,172 688,0 131,0 Z M 410,1127 C 374,1127 344,1139 319,1164 295,1188 283,1218 283,1252 283,1286 295,1315 319,1340 344,1365 374,1377 410,1377 444,1377 473,1364 499,1339 524,1314 537,1285 537,1252 537,1218 524,1188 499,1164 473,1139 444,1127 410,1127 Z"
   id="glyph41" />
   <glyph
   unicode="g"
   horiz-adv-x="760"
   d="M 379,320 C 343,320 311,325 281,336 271,325 263,315 257,306 251,296 248,285 248,271 248,248 266,230 302,218 338,205 401,199 492,199 590,199 658,176 696,130 735,83 754,22 754,-55 754,-108 741,-158 716,-204 691,-251 651,-288 598,-317 545,-346 477,-360 395,-360 283,-360 197,-338 136,-295 75,-252 45,-191 45,-110 45,-66 55,-28 76,6 96,39 122,67 154,89 134,104 119,122 109,144 98,166 92,192 92,222 92,256 101,288 118,317 135,346 156,373 180,398 122,457 92,540 92,648 92,749 119,830 172,891 225,952 294,982 379,982 458,982 524,955 575,902 604,928 635,947 669,960 702,973 739,979 778,976 L 793,822 C 738,832 689,821 645,791 660,748 668,700 668,648 668,544 640,463 585,406 529,349 461,320 379,320 Z M 379,478 C 416,478 444,492 464,522 484,551 494,593 494,648 494,701 483,743 463,772 442,801 414,816 379,816 346,816 319,801 297,772 275,743 264,701 264,648 264,595 275,553 296,523 317,493 345,478 379,478 Z M 207,-81 C 207,-121 225,-150 262,-167 299,-185 347,-194 406,-194 464,-194 509,-183 541,-160 572,-138 588,-109 588,-75 588,-38 577,-13 555,1 533,16 495,23 440,23 409,23 378,24 348,27 318,30 289,34 262,39 246,23 232,5 222,-14 212,-33 207,-55 207,-81 Z"
   id="glyph43" />
   <glyph
   unicode="f"
   horiz-adv-x="759"
   d="M 219,785 L 57,785 57,953 219,953 219,1012 C 219,1097 234,1167 264,1222 294,1278 333,1318 382,1344 430,1370 482,1383 537,1383 587,1383 636,1373 682,1352 728,1332 766,1301 795,1260 L 727,1113 719,1094 702,1102 C 698,1112 695,1123 691,1134 688,1146 678,1160 662,1176 630,1199 594,1211 553,1211 511,1211 477,1195 452,1163 426,1131 414,1081 414,1012 L 414,953 639,953 639,785 414,785 414,1 219,1 219,785 Z"
   id="glyph45" />
   <glyph
   unicode="e"
   horiz-adv-x="706"
   d="M 442,-23 C 329,-23 237,18 167,99 97,180 61,303 61,467 61,639 95,767 163,850 230,933 317,975 422,975 517,975 596,937 656,862 717,787 748,667 748,501 748,486 748,471 748,456 748,441 747,427 745,415 L 254,415 C 257,316 277,247 315,208 354,169 399,149 453,149 522,149 580,178 627,237 L 727,122 C 657,25 563,-23 442,-23 Z M 256,581 L 557,581 C 557,730 509,805 414,805 373,805 338,788 310,753 282,718 264,660 256,581 Z"
   id="glyph47" />
   <glyph
   unicode="d"
   horiz-adv-x="724"
   d="M 360,-23 C 304,-23 253,-7 207,26 160,59 123,112 95,185 67,258 53,356 53,479 53,599 67,696 94,768 122,840 158,893 205,927 251,960 304,977 363,977 405,977 442,967 475,947 508,928 532,896 549,854 L 549,1370 760,1370 760,1352 C 752,1343 746,1335 744,1325 742,1315 742,1299 743,1276 L 741,135 C 741,112 742,89 743,67 745,45 750,23 758,0 L 567,0 C 559,19 554,35 552,50 550,64 549,83 549,106 528,64 501,32 468,10 435,-12 399,-23 360,-23 Z M 397,153 C 497,153 547,261 547,477 547,590 535,674 510,727 485,780 448,807 397,807 348,807 311,782 285,731 259,681 246,601 246,491 246,372 261,286 291,233 321,180 356,153 397,153 Z"
   id="glyph49" />
   <glyph
   unicode="c"
   horiz-adv-x="724"
   d="M 465,-23 C 347,-23 252,20 178,106 104,192 68,313 68,470 68,577 85,668 120,743 155,818 202,875 261,915 321,954 386,974 459,974 530,974 591,960 642,931 693,903 734,863 764,812 L 668,673 657,657 643,667 C 642,678 640,689 638,701 636,712 628,726 614,743 578,778 529,796 469,796 417,796 370,771 329,721 287,671 266,589 266,473 266,362 287,281 328,229 369,177 417,151 473,151 509,151 542,159 572,175 603,190 632,217 659,253 L 754,108 C 715,63 671,30 621,9 570,-12 518,-23 465,-23 Z"
   id="glyph51" />
   <glyph
   unicode="a"
   horiz-adv-x="689"
   d="M 324,-23 C 239,-23 173,3 127,54 81,105 57,170 57,250 57,360 94,446 168,506 242,566 345,596 477,596 496,596 520,594 547,592 540,679 523,737 497,765 470,793 433,807 385,807 350,807 317,801 288,788 258,775 229,752 199,719 L 96,844 C 178,931 279,975 399,975 468,975 527,963 579,938 630,913 669,869 697,804 725,739 739,647 739,528 L 739,0 541,0 541,100 C 515,52 483,20 446,3 410,-14 369,-23 324,-23 Z M 252,276 C 252,232 262,200 284,178 305,156 332,145 365,145 422,145 466,168 496,214 526,259 543,333 549,434 535,435 522,436 510,436 498,436 487,436 477,436 397,436 339,422 304,395 269,368 252,328 252,276 Z"
   id="glyph53" />
   <glyph
   unicode="T"
   horiz-adv-x="760"
   d="M 305,0 L 305,1096 39,1096 39,1278 778,1278 778,1096 498,1096 498,0 305,0 Z"
   id="glyph55" />
   <glyph
   unicode="S"
   horiz-adv-x="706"
   d="M 395,-23 C 326,-23 262,-12 204,11 146,33 97,68 57,114 L 145,303 154,321 170,315 C 174,304 177,292 179,279 181,266 190,251 205,235 231,212 259,193 291,179 322,164 356,157 393,157 445,157 486,173 517,203 548,234 563,279 563,337 563,366 559,393 550,418 541,444 523,469 497,494 470,519 429,548 373,579 270,632 199,689 159,749 118,809 98,882 98,966 98,1067 129,1147 189,1206 250,1265 328,1294 422,1294 552,1294 655,1246 731,1151 L 635,989 627,972 612,981 C 608,992 605,1003 603,1016 601,1029 593,1045 580,1063 558,1084 535,1099 512,1107 489,1114 462,1118 432,1118 390,1118 356,1105 331,1079 305,1053 293,1019 293,977 293,946 298,919 307,894 317,868 336,843 366,818 395,793 440,764 500,731 598,677 666,622 702,564 739,506 758,436 758,354 758,284 744,221 717,163 690,106 649,61 595,27 541,-6 474,-23 395,-23 Z"
   id="glyph57" />
   <glyph
   unicode="R"
   horiz-adv-x="724"
   d="M 76,1 L 76,1276 391,1276 C 514,1276 605,1244 664,1178 722,1113 752,1022 752,906 752,821 735,748 702,688 670,627 624,584 565,560 L 780,1 580,1 377,537 274,537 274,1 76,1 Z M 274,713 L 406,713 C 504,713 553,776 553,902 553,963 540,1010 514,1043 488,1076 452,1092 406,1092 L 274,1092 274,713 Z"
   id="glyph59" />
   <glyph
   unicode="K"
   horiz-adv-x="759"
   d="M 315,561 L 256,469 258,0 61,0 61,1276 274,1276 274,1260 C 268,1252 263,1242 261,1232 259,1222 258,1206 258,1184 L 258,768 571,1286 C 591,1284 614,1281 642,1279 670,1277 692,1276 709,1276 L 782,1276 451,725 803,0 586,-8 315,561 Z"
   id="glyph61" />
   <glyph
   unicode="G"
   horiz-adv-x="742"
   d="M 453,-23 C 323,-23 222,34 151,148 79,262 43,422 43,628 42,764 54,875 81,962 108,1050 142,1117 184,1165 227,1213 272,1246 319,1265 367,1284 412,1294 453,1294 522,1294 585,1277 641,1242 697,1207 739,1159 768,1097 L 664,966 651,952 637,962 C 636,973 634,984 632,996 630,1008 623,1023 610,1042 593,1064 572,1081 549,1094 526,1107 496,1114 459,1114 419,1114 383,1099 349,1071 316,1042 289,994 269,927 250,860 240,769 240,653 240,484 259,358 298,277 337,196 388,155 451,155 477,155 501,159 525,167 549,176 571,189 592,208 L 592,471 436,471 436,651 772,651 772,106 C 723,60 671,27 617,7 564,-13 509,-23 453,-23 Z"
   id="glyph63" />
   <glyph
   unicode="D"
   horiz-adv-x="724"
   d="M 68,-2 L 68,1276 332,1276 C 421,1276 491,1262 543,1235 595,1208 637,1166 670,1108 704,1051 730,984 749,907 767,831 776,739 776,631 773,429 736,273 663,163 589,53 472,-2 311,-2 L 68,-2 Z M 262,172 L 317,172 C 412,172 479,212 520,292 561,372 582,483 582,625 582,772 564,889 528,974 493,1059 428,1102 334,1102 L 262,1102 262,172 Z"
   id="glyph65" />
   <glyph
   unicode="C"
   horiz-adv-x="760"
   d="M 461,-23 C 386,-23 317,-1 256,42 195,85 145,154 108,249 70,345 51,472 51,630 51,762 64,870 89,955 114,1040 148,1108 189,1157 231,1206 276,1241 326,1260 375,1280 423,1290 471,1290 548,1290 612,1271 665,1234 717,1196 757,1145 784,1081 L 678,952 666,938 653,950 C 653,960 653,971 651,984 650,997 644,1013 633,1032 610,1062 585,1083 560,1094 535,1106 509,1112 481,1112 440,1112 402,1095 367,1063 331,1030 302,979 281,910 259,841 248,751 248,639 248,477 270,357 313,277 357,197 410,157 473,157 550,157 612,202 659,292 L 770,159 C 733,95 690,49 640,20 590,-9 530,-23 461,-23 Z"
   id="glyph67" />
   <glyph
   unicode="B"
   horiz-adv-x="724"
   d="M 61,0 L 61,1276 373,1276 C 486,1276 574,1250 637,1196 700,1143 731,1064 731,959 731,890 719,832 694,782 670,733 634,699 586,680 640,656 685,616 719,560 753,505 770,440 770,365 770,250 737,160 671,96 605,32 504,0 371,0 L 61,0 Z M 258,766 L 358,766 C 427,766 473,782 499,813 524,845 537,887 537,940 537,988 524,1027 499,1056 473,1085 432,1100 375,1100 L 258,1100 258,766 Z M 258,180 L 391,180 C 446,180 489,196 520,226 552,257 567,306 567,373 567,440 552,493 521,533 491,572 438,592 365,592 L 258,592 258,180 Z"
   id="glyph69" />
   <glyph
   unicode="A"
   horiz-adv-x="794"
   d="M 598,0 L 530,303 287,303 217,0 20,0 356,1291 463,1291 801,0 598,0 Z M 410,846 L 322,457 498,457 410,846 Z"
   id="glyph71" />
   <glyph
   unicode="*"
   horiz-adv-x="742"
   d="M 256,223 L 98,358 301,637 51,721 119,924 340,784 305,1110 528,1110 485,784 705,911 772,717 516,639 715,360 557,225 410,524 256,223 Z"
   id="glyph73" />
   <glyph
   unicode=" "
   horiz-adv-x="811"
   id="glyph75" />
  </font>
 </defs>
 <defs
   id="defs147">
  <font
   id="EmbeddedFont_2"
   horiz-adv-x="2048">
   <font-face
   font-family="OpenDinSchriftenEngshrift embedded"
   units-per-em="2048"
   font-weight="normal"
   font-style="normal"
   ascent="1834"
   descent="406"
   id="font-face80" />
   <missing-glyph
   horiz-adv-x="2048"
   d="M 0,0 L 2047,0 2047,2047 0,2047 0,0 Z"
   id="missing-glyph82" />
   <glyph
   unicode="u"
   horiz-adv-x="636"
   d="M 102,205 C 102,90 193,0 307,0 420,0 512,90 512,205 L 512,0 717,0 717,1024 512,1024 512,307 C 512,250 465,205 410,205 352,205 307,250 307,307 L 307,1024 102,1024 102,205 Z"
   id="glyph84" />
   <glyph
   unicode="t"
   horiz-adv-x="425"
   d="M 102,1024 L 205,1024 205,1229 410,1434 410,1024 512,1024 512,819 410,819 410,0 205,0 205,819 102,819 102,1024 Z"
   id="glyph86" />
   <glyph
   unicode="s"
   horiz-adv-x="636"
   d="M 410,1024 C 240,1024 102,885 102,717 102,547 240,410 410,410 465,410 512,363 512,307 512,250 465,205 410,205 352,205 307,250 307,307 L 102,307 C 102,137 240,0 410,0 578,0 717,137 717,307 717,475 578,614 410,614 352,614 307,659 307,717 307,772 352,819 410,819 465,819 512,772 512,717 L 717,717 C 717,885 578,1024 410,1024 Z"
   id="glyph88" />
   <glyph
   unicode="r"
   horiz-adv-x="636"
   d="M 102,0 L 307,0 307,717 C 307,772 352,819 410,819 465,819 512,772 512,717 L 717,717 717,819 C 717,932 625,1024 512,1024 397,1024 307,932 307,819 L 307,1024 102,1024 102,0 Z"
   id="glyph90" />
   <glyph
   unicode="p"
   horiz-adv-x="636"
   d="M 102,1024 L 102,-410 307,-410 307,205 C 307,90 397,0 512,0 625,0 717,90 717,205 L 717,819 C 717,932 625,1024 512,1024 397,1024 307,932 307,819 L 307,1024 102,1024 Z M 410,819 C 465,819 512,772 512,717 L 512,307 C 512,250 465,205 410,205 352,205 307,250 307,307 L 307,717 C 307,772 352,819 410,819 Z"
   id="glyph92" />
   <glyph
   unicode="o"
   horiz-adv-x="636"
   d="M 410,1024 C 240,1024 102,885 102,717 L 102,307 C 102,137 240,0 410,0 578,0 717,137 717,307 L 717,717 C 717,885 578,1024 410,1024 Z M 410,819 C 465,819 512,772 512,717 L 512,307 C 512,250 465,205 410,205 352,205 307,250 307,307 L 307,717 C 307,772 352,819 410,819 Z"
   id="glyph94" />
   <glyph
   unicode="n"
   horiz-adv-x="636"
   d="M 102,0 L 307,0 307,717 C 307,772 352,819 410,819 465,819 512,772 512,717 L 512,0 717,0 717,819 C 717,932 625,1024 512,1024 397,1024 307,932 307,819 L 307,1024 102,1024 102,0 Z"
   id="glyph96" />
   <glyph
   unicode="m"
   horiz-adv-x="1042"
   d="M 102,0 L 307,0 307,717 C 307,772 352,819 410,819 465,819 512,772 512,717 L 512,0 717,0 717,717 C 717,772 762,819 819,819 875,819 922,772 922,717 L 922,0 1126,0 1126,819 C 1126,932 1034,1024 922,1024 807,1024 717,932 717,819 717,932 625,1024 512,1024 397,1024 307,932 307,819 L 307,1024 102,1024 102,0 Z"
   id="glyph98" />
   <glyph
   unicode="l"
   horiz-adv-x="336"
   d="M 102,307 C 102,137 240,0 410,0 L 410,205 C 352,205 307,250 307,307 L 307,1434 102,1434 102,307 Z"
   id="glyph100" />
   <glyph
   unicode="k"
   horiz-adv-x="636"
   d="M 102,1434 L 307,1434 307,614 512,1024 717,1024 461,512 717,0 512,0 307,410 307,0 102,0 102,1434 Z"
   id="glyph102" />
   <glyph
   unicode="i"
   horiz-adv-x="231"
   d="M 102,1434 L 102,1229 307,1229 307,1434 102,1434 Z M 102,1024 L 102,0 307,0 307,1024 102,1024 Z"
   id="glyph104" />
   <glyph
   unicode="h"
   horiz-adv-x="636"
   d="M 102,0 L 307,0 307,717 C 307,772 352,819 410,819 465,819 512,772 512,717 L 512,0 717,0 717,819 C 717,932 625,1024 512,1024 397,1024 307,932 307,819 L 307,1434 102,1434 102,0 Z"
   id="glyph106" />
   <glyph
   unicode="g"
   horiz-adv-x="636"
   d="M 307,1024 C 193,1024 102,932 102,819 L 102,717 102,307 102,205 C 102,90 193,0 307,0 420,0 512,90 512,205 L 512,-102 C 512,-160 465,-205 410,-205 352,-205 307,-160 307,-102 L 102,-102 C 102,-272 240,-410 410,-410 578,-410 717,-272 717,-102 L 717,1024 512,1024 512,819 C 512,932 420,1024 307,1024 Z M 410,819 C 465,819 512,772 512,717 L 512,307 C 512,250 465,205 410,205 352,205 307,250 307,307 L 307,717 C 307,772 352,819 410,819 Z"
   id="glyph108" />
   <glyph
   unicode="f"
   horiz-adv-x="425"
   d="M 512,1434 C 342,1434 205,1294 205,1126 L 205,1024 102,1024 102,819 205,819 205,0 410,0 410,819 512,819 512,1024 410,1024 410,1126 C 410,1182 455,1229 512,1229 L 512,1434 Z"
   id="glyph110" />
   <glyph
   unicode="e"
   horiz-adv-x="636"
   d="M 410,1024 C 240,1024 102,885 102,717 L 102,307 C 102,137 240,0 410,0 578,0 717,137 717,307 L 512,307 C 512,250 465,205 410,205 352,205 307,250 307,307 L 307,410 717,410 717,717 C 717,885 578,1024 410,1024 Z M 410,819 C 465,819 512,772 512,717 L 512,614 307,614 307,717 C 307,772 352,819 410,819 Z"
   id="glyph112" />
   <glyph
   unicode="d"
   horiz-adv-x="636"
   d="M 512,819 C 512,932 420,1024 307,1024 193,1024 102,932 102,819 L 102,205 C 102,90 193,0 307,0 420,0 512,90 512,205 L 512,0 717,0 717,1434 512,1434 512,819 Z M 410,819 C 465,819 512,772 512,717 L 512,307 C 512,250 465,205 410,205 352,205 307,250 307,307 L 307,717 C 307,772 352,819 410,819 Z"
   id="glyph114" />
   <glyph
   unicode="c"
   horiz-adv-x="636"
   d="M 410,1024 C 240,1024 102,885 102,717 L 102,307 C 102,137 240,0 410,0 578,0 717,137 717,307 L 512,307 C 512,250 465,205 410,205 352,205 307,250 307,307 L 307,717 C 307,772 352,819 410,819 465,819 512,772 512,717 L 717,717 C 717,885 578,1024 410,1024 Z"
   id="glyph116" />
   <glyph
   unicode="b"
   horiz-adv-x="636"
   d="M 102,1434 L 102,307 C 102,137 240,0 410,0 578,0 717,137 717,307 L 717,819 C 717,932 625,1024 512,1024 397,1024 307,932 307,819 L 307,1434 102,1434 Z M 410,819 C 465,819 512,772 512,717 L 512,307 C 512,250 465,205 410,205 352,205 307,250 307,307 L 307,717 C 307,772 352,819 410,819 Z"
   id="glyph118" />
   <glyph
   unicode="a"
   horiz-adv-x="636"
   d="M 410,1024 C 240,1024 102,885 102,717 L 307,717 C 307,772 352,819 410,819 465,819 512,772 512,717 L 512,614 410,614 C 240,614 102,475 102,307 L 102,205 C 102,90 193,0 307,0 420,0 512,90 512,205 L 512,0 717,0 717,717 C 717,885 578,1024 410,1024 Z M 410,410 L 512,410 512,307 C 512,250 465,205 410,205 352,205 307,250 307,307 307,363 352,410 410,410 Z"
   id="glyph120" />
   <glyph
   unicode="W"
   horiz-adv-x="1448"
   d="M 1331,1434 L 1536,1434 1229,0 1024,0 819,954 614,0 410,0 102,1434 307,1434 512,477 717,1434 922,1434 1126,477 1331,1434 Z"
   id="glyph122" />
   <glyph
   unicode="T"
   horiz-adv-x="636"
   d="M 102,1434 L 717,1434 717,1229 512,1229 512,0 307,0 307,1229 102,1229 102,1434 Z"
   id="glyph124" />
   <glyph
   unicode="S"
   horiz-adv-x="636"
   d="M 410,1434 C 240,1434 102,1294 102,1126 L 102,922 C 102,752 240,614 410,614 465,614 512,567 512,512 L 512,307 C 512,250 465,205 410,205 352,205 307,250 307,307 L 307,410 102,410 102,307 C 102,137 240,0 410,0 578,0 717,137 717,307 L 717,512 C 717,680 578,819 410,819 352,819 307,864 307,922 L 307,1126 C 307,1182 352,1229 410,1229 465,1229 512,1182 512,1126 L 512,1024 717,1024 717,1126 C 717,1294 578,1434 410,1434 Z"
   id="glyph126" />
   <glyph
   unicode="Q"
   horiz-adv-x="742"
   d="M 410,1434 C 240,1434 102,1294 102,1126 L 102,307 C 102,137 240,0 410,0 487,0 559,29 614,78 668,29 739,0 819,0 L 819,205 C 762,205 717,250 717,307 L 717,1126 C 717,1294 578,1434 410,1434 Z M 410,1229 C 465,1229 512,1182 512,1126 L 512,307 C 512,250 465,205 410,205 352,205 307,250 307,307 L 307,1126 C 307,1182 352,1229 410,1229 Z"
   id="glyph128" />
   <glyph
   unicode="P"
   horiz-adv-x="636"
   d="M 102,1434 L 102,0 307,0 307,614 410,614 C 578,614 717,752 717,922 L 717,1126 C 717,1294 578,1434 410,1434 L 102,1434 Z M 307,1229 L 410,1229 C 465,1229 512,1182 512,1126 L 512,922 C 512,864 465,819 410,819 L 307,819 307,1229 Z"
   id="glyph130" />
   <glyph
   unicode="M"
   horiz-adv-x="1042"
   d="M 102,1434 L 307,1434 614,666 922,1434 1126,1434 1126,0 922,0 922,922 717,410 512,410 307,922 307,0 102,0 102,1434 Z"
   id="glyph132" />
   <glyph
   unicode="K"
   horiz-adv-x="636"
   d="M 102,1434 L 102,0 307,0 307,545 512,0 717,0 446,717 717,1434 512,1434 307,887 307,1434 102,1434 Z"
   id="glyph134" />
   <glyph
   unicode="I"
   horiz-adv-x="231"
   d="M 102,1434 L 307,1434 307,0 102,0 102,1434 Z"
   id="glyph136" />
   <glyph
   unicode="H"
   horiz-adv-x="636"
   d="M 102,1434 L 307,1434 307,819 512,819 512,1434 717,1434 717,0 512,0 512,614 307,614 307,0 102,0 102,1434 Z"
   id="glyph138" />
   <glyph
   unicode="C"
   horiz-adv-x="636"
   d="M 410,1434 C 240,1434 102,1294 102,1126 L 102,307 C 102,137 240,0 410,0 578,0 717,137 717,307 L 512,307 C 512,250 465,205 410,205 352,205 307,250 307,307 L 307,1126 C 307,1182 352,1229 410,1229 465,1229 512,1182 512,1126 L 717,1126 C 717,1294 578,1434 410,1434 Z"
   id="glyph140" />
   <glyph
   unicode="A"
   horiz-adv-x="848"
   d="M 510,954 L 584,614 438,614 510,954 Z M 100,0 L 305,0 393,410 629,410 715,0 920,0 612,1434 408,1434 100,0 Z"
   id="glyph142" />
   <glyph
   unicode=" "
   horiz-adv-x="512"
   id="glyph144" />
  </font>
</defs>
</svg>
