<svg id="artwork" xmlns="http://www.w3.org/2000/svg" viewBox="0 0 1024 260"><defs><style>.cls-1{fill:#fff;}</style></defs><path d="M12.83,5.41l4.63,3.74c.14.11,6.08,5.16,12.55,19.7A165.32,165.32,0,0,1,39.72,59.2a314.94,314.94,0,0,1,6.64,49.06c.55,8.74.85,18,.9,27.54v0h0c0,6.18-.05,12.64-.23,19.22-2.66,2.68-8.38,8.59-14.41,15.66A148.1,148.1,0,0,0,18,190.46c-.42.71-.75,1.29-1,1.82-1.75,3.16-2.08,5.58-1,7.38.94,1.59,2.8,2.4,5.52,2.4,6,0,16.17-3.85,23.27-6.87-.53,6.34-1.14,12.81-1.82,19.27C39,218.89,32.45,226.26,29,229.39a28.64,28.64,0,0,0-4.85,5.73c-1.87,3-2.26,5.59-1.15,7.58s3.71,3.09,7.63,3.09a31.71,31.71,0,0,0,3.58-.22,59.58,59.58,0,0,0,26.2-10l11,1.56c32,4.54,48,6.82,60.32,6.82h.53a5.4,5.4,0,0,0,1.1-.13c6.44,3.24,18.55,8.24,32,8.24a51.49,51.49,0,0,0,8-.61c4.18-.66,6.66-2.09,7.56-4.37.84-2.09.17-4.57-2-7.36-5.52-7.16-20.64-16.19-26.58-19.58-.68-11.22-1.6-22.63-2.72-34,6.35,1.84,10.86,2.7,14.07,2.7s5.22-.8,6.53-2.44c1.92-2.39,1.41-5.91.87-8.36-.17-.75-.39-1.57-.64-2.44-1.33-4.51-6-10-13.74-16.47-4.08-3.36-8.3-6.36-11.33-8.42-.2-1.34-.59-4-.87-5.89-.24-1.62-.43-2.89-.43-2.91v0h0c-.22-1.33-5.54-32.65-10-50.24-.71-2.8-2.74-9.32-2.74-9.32l-1.19-3.22c-8.87-23.41-25-41.87-48.06-54.87C63.38,13.61,44.09,9,31.23,7A113.1,113.1,0,0,0,18.79,5.62l-6-.21Z"/><path class="cls-1" d="M12.83,5.41l6,.21A113.1,113.1,0,0,1,31.23,7c12.86,2,32.15,6.64,51,17.26,23,13,39.19,31.46,48.06,54.87l1.19,3.22s2,6.52,2.74,9.32c4.43,17.59,9.75,48.91,10,50.24h0v0s.19,1.29.43,2.91c.28,1.91.67,4.55.87,5.89,3,2.06,7.25,5.06,11.33,8.42,7.79,6.42,12.41,12,13.74,16.47.25.87.47,1.69.64,2.44.54,2.45,1.05,6-.87,8.36-1.31,1.64-3.45,2.44-6.53,2.44s-7.72-.86-14.07-2.7c1.12,11.33,2,22.74,2.72,34,5.94,3.39,21.06,12.42,26.58,19.58,2.16,2.79,2.83,5.27,2,7.36-.9,2.28-3.38,3.71-7.56,4.37a51.49,51.49,0,0,1-8,.61c-13.48,0-25.59-5-32-8.24a5.4,5.4,0,0,1-1.1.13h-.53c-12.33,0-28.37-2.28-60.32-6.82l-11-1.56a59.58,59.58,0,0,1-26.2,10,31.71,31.71,0,0,1-3.58.22c-3.92,0-6.48-1-7.63-3.09s-.72-4.54,1.15-7.58A28.64,28.64,0,0,1,29,229.39c3.42-3.13,10-10.5,13.91-14.93.68-6.46,1.29-12.93,1.82-19.27-7.1,3-17.32,6.87-23.27,6.87-2.72,0-4.58-.81-5.52-2.4-1.07-1.8-.74-4.22,1-7.38.29-.53.62-1.11,1-1.82a148.1,148.1,0,0,1,14.61-19.73c6-7.07,11.75-13,14.41-15.66.18-6.58.26-13,.23-19.22h0v0c0-9.54-.35-18.8-.9-27.54A314.94,314.94,0,0,0,39.72,59.2,165.32,165.32,0,0,0,30,28.85C23.54,14.31,17.6,9.26,17.46,9.15L12.83,5.41"/><path class="cls-1" d="M1,1,14.9,12.21C38.59,39,43,97.79,43.27,136v0c0,5.61,0,11.46-.18,17.41-7.67,7.56-23.37,25.67-28.51,35-2.9,4.47-4.38,9.62-2.05,13.26,5,7.85,16.9,3.53,27.68-.35-.34,3.79-.71,7.62-1.11,11.43-3.76,4.26-9.69,10.86-12.77,13.68A32.64,32.64,0,0,0,20.78,233c-3.35,5.44-2.52,9.32-1.24,11.63,2.1,4.09,8,5.89,15.15,4.89A63.54,63.54,0,0,0,61.4,239.7c28.79,4.1,59.44,8.69,71.31,8.19,8.44,4.43,26.86,10.19,41.36,7.46,5.62-.88,9.2-3.18,10.65-6.83,4.71-12.17-19.14-24.94-28.42-30.81-.55-8.68-1.24-17.47-2.05-26.24a42.45,42.45,0,0,0,9.54,1.37c4.31,0,7.56-1.33,9.65-3.94,3.86-5.28,1.82-10.84.94-14.43-1.82-8.14-16.21-20.08-25.2-26.07-.26-1.75-.84-5.64-1.06-7.16-.32-1.88-7.65-45.46-12.88-60.21C118.26,28.7,61.63,2.28,13,1.42L1,1Z"/><path d="M12.83,5.41l4.63,3.74c.14.11,6.08,5.16,12.55,19.7A165.32,165.32,0,0,1,39.72,59.2a314.94,314.94,0,0,1,6.64,49.06c.55,8.74.85,18,.9,27.54v0h0c0,6.18-.05,12.64-.23,19.22-2.66,2.68-8.38,8.59-14.41,15.66A148.1,148.1,0,0,0,18,190.46c-.42.71-.75,1.29-1,1.82-1.75,3.16-2.08,5.58-1,7.38.94,1.59,2.8,2.4,5.52,2.4,6,0,16.17-3.85,23.27-6.87-.53,6.34-1.14,12.81-1.82,19.27C39,218.89,32.45,226.26,29,229.39a28.64,28.64,0,0,0-4.85,5.73c-1.87,3-2.26,5.59-1.15,7.58s3.71,3.09,7.63,3.09a31.71,31.71,0,0,0,3.58-.22,59.58,59.58,0,0,0,26.2-10l11,1.56c32,4.54,48,6.82,60.32,6.82h.53a5.4,5.4,0,0,0,1.1-.13c6.44,3.24,18.55,8.24,32,8.24a51.49,51.49,0,0,0,8-.61c4.18-.66,6.66-2.09,7.56-4.37.84-2.09.17-4.57-2-7.36-5.52-7.16-20.64-16.19-26.58-19.58-.68-11.22-1.6-22.63-2.72-34,6.35,1.84,10.86,2.7,14.07,2.7s5.22-.8,6.53-2.44c1.92-2.39,1.41-5.91.87-8.36-.17-.75-.39-1.57-.64-2.44-1.33-4.51-6-10-13.74-16.47-4.08-3.36-8.3-6.36-11.33-8.42-.2-1.34-.59-4-.87-5.89-.24-1.62-.43-2.89-.43-2.91v0h0c-.22-1.33-5.54-32.65-10-50.24-.71-2.8-2.74-9.32-2.74-9.32l-1.19-3.22c-8.87-23.41-25-41.87-48.06-54.87C63.38,13.61,44.09,9,31.23,7A113.1,113.1,0,0,0,18.79,5.62l-6-.21Z"/><path class="cls-1" d="M169.24,178.48c-.16-.73-.36-1.5-.6-2.32-1.42-4.82-7.07-10.52-13.07-15.48a66.05,66.05,0,0,0-9.23,12.42c-.78-6.83-1.78-14.67-2.81-22-.19-1.27-.58-3.93-.89-6a63.07,63.07,0,0,1-11.72,3.6l-1.23.27-.34-1.21a26.17,26.17,0,0,1-.71-4.4v-.07c-.25-5.67-.86-12-5-15.67-3.23-2.85-8.35-4-15.64-3.39-12.16.77-21.5,4.53-27,10.9a20.63,20.63,0,0,0-5.18,15.16l.11,1.45-1.46,0c-4.3-.07-12.32-4.13-25.19-12.75q0,8.15-.26,16.93v0c-.24,7.9-.63,16.67-1.2,25.41.1.09,6.57,5.63,6.9,5.89A88.85,88.85,0,0,0,78,200.07c21.39,7.82,25,20,25,20s31-21.46,43.77-42.93c.23,2.11.46,4.18.69,6.23C166.86,189.36,171.27,187.54,169.24,178.48Z"/><path d="M109.36,148.49a3.07,3.07,0,0,0-1.55-.19,16.37,16.37,0,0,0-2.34.76,6.37,6.37,0,0,1-1.06.43c-1.72.27-3.45.51-5.18.72-.62.08-1.28.23-1.35.87a2.36,2.36,0,0,0,.46,1.58,4.45,4.45,0,0,0,3.09,1.35,42.53,42.53,0,0,0,8.18-2.25,1.69,1.69,0,0,0-.25-3.27Z"/><path class="cls-1" d="M177.45,240.9c-5.65-7.33-22.11-16.89-27-19.64l.06-.06h0s-5.5,5.38-7.15,8.63c-1.57,3.09-6,10.31-9.78,11.81,7.39,3.82,23.07,10.4,39.55,7.8C180.39,248.3,180.57,244.94,177.45,240.9Zm-27-19.64-.1.1Z"/><path class="cls-1" d="M58.78,232.28c-.64-1.76-1.42-4.82-6.45-9.86-.26-.26-.54-.52-.83-.77-2.35-2.05-5.57-4.61-7-6-3.87,4.41-10.62,12-14.14,15.18a26.9,26.9,0,0,0-4.5,5.3c-2.67,4.34-2.6,8.66,8.14,7.43a57.63,57.63,0,0,0,25.47-9.81A7.9,7.9,0,0,1,58.78,232.28Z"/><path class="cls-1" d="M34.08,172.09a148.29,148.29,0,0,0-14.35,19.39c-.35.59-.69,1.18-1,1.76C11,207.19,37.86,196.12,47,192v.13s0-.09,0-.13q.34-4.46.63-8.77A88.86,88.86,0,0,0,34.08,172.09Z"/><circle class="cls-1" cx="113.89" cy="91.89" r="1.84"/><path class="cls-1" d="M142.21,142.21s-5.46-32.32-9.94-50.09c-1.15-4.57-3.84-12.26-3.84-12.26q-4.12-.94-8-1.51h-.15a84.23,84.23,0,0,0-9.62-.82c-26.5-.72-44.73,11.85-55.51,22.82a84.32,84.32,0,0,0-6.79,7.79h0c.54,8.52.86,17.73.91,27.65l.74.5c11.13,7.49,18.88,11.73,23.1,12.62A23.39,23.39,0,0,1,79,133.4c3.26-3.74,9.08-8.18,19.15-10.45h0a2.56,2.56,0,0,1-.45-5.08,41.08,41.08,0,0,1,4.18-.43c6.06-.4,9.22-.91,9.32-7.41,0-2.33-.8-3.25-1.44-3.73-2.89-2.22-9.63-1-11.76-.35A2.56,2.56,0,1,1,96.51,101a33.17,33.17,0,0,1,5.79-1c4.54-.38,8.08.36,10.5,2.21,1.62,1.24,3.53,3.61,3.46,7.89-.12,7.29-3.51,10.19-7.4,11.43,7.49-.44,12.92.9,16.56,4.12,4.88,4.32,5.59,11.29,5.86,17.5.09.88.19,1.8.35,2.68a58.61,58.61,0,0,0,10.06-3.19l.55-.24Zm-62-34.08a6.35,6.35,0,1,1,6.36-6.35A6.35,6.35,0,0,1,80.18,108.13Zm37.48-7.7A6.35,6.35,0,1,1,124,94.08,6.35,6.35,0,0,1,117.66,100.43Z"/><circle class="cls-1" cx="76.42" cy="99.6" r="1.84"/><path class="cls-1" d="M219.37,227.21V65h34.41q20,0,30.42,10.93t10.37,31v75.88q0,22.78-11.06,33.61t-31.78,10.82ZM242.61,86.85V205.34h10.71q9.8,0,13.9-4.9t4.1-15.38V106.9q0-9.57-3.87-14.81t-14.13-5.24Z"/><path class="cls-1" d="M316.44,227.21V65h37.37q41,0,41,47.62,0,14.36-4.44,24.38t-15.61,16.18l25.06,74.05H375.22l-21.64-69.27h-13.9v69.27ZM339.68,86.85v50.58h13.21a23.37,23.37,0,0,0,9.8-1.7,13.33,13.33,0,0,0,5.7-4.9,22.31,22.31,0,0,0,2.5-7.86,75.07,75.07,0,0,0,.69-10.83,74.92,74.92,0,0,0-.69-10.82,21.54,21.54,0,0,0-2.73-8.09q-4.34-6.37-16.4-6.38Z"/><path class="cls-1" d="M412.14,103.26a41.44,41.44,0,0,1,3.41-17.32,36.6,36.6,0,0,1,9.12-12.53,38.39,38.39,0,0,1,12.42-7.29,41.38,41.38,0,0,1,40.67,7.29,38.24,38.24,0,0,1,8.88,12.53,41.44,41.44,0,0,1,3.42,17.32v85.67q0,10.26-3.42,17.54a36.2,36.2,0,0,1-8.88,12.08,39.17,39.17,0,0,1-12.65,7.52,40.35,40.35,0,0,1-28,0,36.47,36.47,0,0,1-12.42-7.52,34.72,34.72,0,0,1-9.12-12.08q-3.42-7.28-3.41-17.54Zm23.24,85.67q0,8.43,4.67,12.42a17.3,17.3,0,0,0,22.1,0q4.67-4,4.67-12.42V103.26q0-8.43-4.67-12.42a17.3,17.3,0,0,0-22.1,0q-4.68,4-4.67,12.42Z"/><path class="cls-1" d="M509.2,103.26a41.44,41.44,0,0,1,3.42-17.32,36.57,36.57,0,0,1,9.11-12.53,38.49,38.49,0,0,1,12.42-7.29,41.35,41.35,0,0,1,40.67,7.29,38.12,38.12,0,0,1,8.89,12.53,41.44,41.44,0,0,1,3.42,17.32v8.2H563.88v-8.2q0-8.43-4.67-12.42a17.3,17.3,0,0,0-22.1,0q-4.67,4-4.67,12.42v85.67q0,8.43,4.67,12.42a17.3,17.3,0,0,0,22.1,0q4.66-4,4.67-12.42V158.4H545.43V137.89h41.7v51q0,10.26-3.42,17.54a36.09,36.09,0,0,1-8.89,12.08,39.12,39.12,0,0,1-12.64,7.52,40.38,40.38,0,0,1-28,0,36.56,36.56,0,0,1-12.42-7.52,34.7,34.7,0,0,1-9.11-12.08q-3.42-7.28-3.42-17.54Z"/><path class="cls-1" d="M682.82,65V190.75a36.77,36.77,0,0,1-10.93,26.66,38.53,38.53,0,0,1-12.08,8.2,36.21,36.21,0,0,1-14.58,3,35.38,35.38,0,0,1-14.47-3,39.61,39.61,0,0,1-20.17-20.16,36.12,36.12,0,0,1-3-14.7V65h23.24V188.47q0,8.67,4.1,12.76a14.85,14.85,0,0,0,20.51,0q4.1-4.09,4.1-12.76V65Z"/><path class="cls-1" d="M704.69,227.21V65H774V86.85h-46v47.62H768v21.88h-40.1V204h46v23.24Z"/><path class="cls-1" d="M832.06,227.21V65H855.3V227.21Z"/><path class="cls-1" d="M874.44,150.42a85.6,85.6,0,0,1,.91-13,30.87,30.87,0,0,1,15.15-22.55q7.63-4.56,18.57-4.56t18.57,4.56a30.85,30.85,0,0,1,15.16,22.55,86.91,86.91,0,0,1,.91,13v38.05a86.71,86.71,0,0,1-.91,13A30.88,30.88,0,0,1,927.64,224q-7.64,4.56-18.57,4.56T890.5,224a30.9,30.9,0,0,1-15.15-22.56,85.41,85.41,0,0,1-.91-13Zm23.24,41.7q0,6.62,3.08,9.91a12.1,12.1,0,0,0,16.63,0q3.08-3.3,3.08-9.91V146.78q0-6.61-3.08-9.91a12.1,12.1,0,0,0-16.63,0q-3.07,3.3-3.08,9.91Z"/><path class="cls-1" d="M972.87,227.21V86.85H946V65h77V86.85H996.11V227.21Z"/></svg>